<mxfile host="app.diagrams.net" modified="2023-07-13T13:21:12.913Z" agent="Mozilla/5.0 (Macintosh; Intel Mac OS X 10_15_7) AppleWebKit/605.1.15 (KHTML, like Gecko) Version/16.5 Safari/605.1.15" etag="vSMnNbYfXbUih451o3dh" version="21.6.2" type="github">
  <diagram id="D3b2O7mXZaBLHZMrj7lS" name="Page-1">
    <mxGraphModel dx="1478" dy="596" grid="1" gridSize="10" guides="1" tooltips="1" connect="1" arrows="1" fold="1" page="1" pageScale="1" pageWidth="827" pageHeight="2569" math="0" shadow="0">
      <root>
        <mxCell id="0" />
        <mxCell id="1" parent="0" />
        <mxCell id="jyPOKYWJDwKyRrshBXNK-1" value="&quot;&lt;br&gt;&#39;" style="rounded=1;whiteSpace=wrap;html=1;fontFamily=Source Code Pro;fontSource=https%3A%2F%2Ffonts.googleapis.com%2Fcss%3Ffamily%3DSource%2BCode%2BPro;fillColor=#F2F2F2;" parent="1" vertex="1">
          <mxGeometry x="-130" y="120" width="90" height="90" as="geometry" />
        </mxCell>
        <mxCell id="jyPOKYWJDwKyRrshBXNK-2" value="&lt;font color=&quot;#ff0000&quot;&gt;&amp;nbsp; cut&lt;br&gt;&lt;/font&gt;U&lt;br&gt;&lt;font color=&quot;#ff0080&quot;&gt;&amp;nbsp; &amp;nbsp;L2&lt;/font&gt;" style="rounded=1;whiteSpace=wrap;html=1;fontFamily=Source Code Pro;fontSource=https%3A%2F%2Ffonts.googleapis.com%2Fcss%3Ffamily%3DSource%2BCode%2BPro;fillColor=#F2F2F2;" parent="1" vertex="1">
          <mxGeometry x="-30" y="120" width="90" height="90" as="geometry" />
        </mxCell>
        <mxCell id="jyPOKYWJDwKyRrshBXNK-3" value="&lt;font color=&quot;#ff0000&quot;&gt;&amp;nbsp;copy&lt;/font&gt;&lt;br&gt;O&lt;br&gt;&lt;font color=&quot;#ff0080&quot;&gt;&amp;nbsp; &amp;nbsp;L1&lt;/font&gt;" style="rounded=1;whiteSpace=wrap;html=1;fontFamily=Source Code Pro;fontSource=https%3A%2F%2Ffonts.googleapis.com%2Fcss%3Ffamily%3DSource%2BCode%2BPro;fillColor=#F2F2F2;" parent="1" vertex="1">
          <mxGeometry x="70" y="120" width="90" height="90" as="geometry" />
        </mxCell>
        <mxCell id="jyPOKYWJDwKyRrshBXNK-4" value="&lt;font color=&quot;#ff0000&quot;&gt;paste&lt;br&gt;&lt;/font&gt;W&lt;br&gt;&amp;nbsp;" style="rounded=1;whiteSpace=wrap;html=1;fontFamily=Source Code Pro;fontSource=https%3A%2F%2Ffonts.googleapis.com%2Fcss%3Ffamily%3DSource%2BCode%2BPro;fillColor=#F2F2F2;" parent="1" vertex="1">
          <mxGeometry x="170" y="120" width="90" height="90" as="geometry" />
        </mxCell>
        <mxCell id="jyPOKYWJDwKyRrshBXNK-5" value="&lt;font color=&quot;#ff0000&quot;&gt;&amp;nbsp;redo&lt;br&gt;&lt;/font&gt;&amp;nbsp;P &amp;nbsp;&lt;br&gt;&amp;nbsp; &amp;nbsp;&amp;nbsp;" style="rounded=1;whiteSpace=wrap;html=1;fontFamily=Source Code Pro;fontSource=https%3A%2F%2Ffonts.googleapis.com%2Fcss%3Ffamily%3DSource%2BCode%2BPro;fillColor=#F2F2F2;" parent="1" vertex="1">
          <mxGeometry x="270" y="120" width="90" height="90" as="geometry" />
        </mxCell>
        <mxCell id="jyPOKYWJDwKyRrshBXNK-6" value="&amp;nbsp;&lt;br&gt;&lt;font color=&quot;#0433ff&quot;&gt;⇧&lt;/font&gt; A &lt;font color=&quot;#ff0000&quot;&gt;←&lt;br&gt;&lt;/font&gt;&lt;font color=&quot;#ff0080&quot;&gt;&amp;nbsp;Mute&lt;/font&gt;" style="rounded=1;whiteSpace=wrap;html=1;fontFamily=Source Code Pro;fontSource=https%3A%2F%2Ffonts.googleapis.com%2Fcss%3Ffamily%3DSource%2BCode%2BPro;fillColor=#F2F2F2;" parent="1" vertex="1">
          <mxGeometry x="-130" y="220" width="90" height="90" as="geometry" />
        </mxCell>
        <mxCell id="jyPOKYWJDwKyRrshBXNK-7" value="&amp;nbsp;&lt;br&gt;&lt;font color=&quot;#0433ff&quot;&gt;⌥&lt;/font&gt; I &lt;font color=&quot;#ff0000&quot;&gt;↑&lt;/font&gt;&lt;br&gt;&lt;font color=&quot;#ff0080&quot;&gt;VolUp&lt;/font&gt;" style="rounded=1;whiteSpace=wrap;html=1;fontFamily=Source Code Pro;fontSource=https%3A%2F%2Ffonts.googleapis.com%2Fcss%3Ffamily%3DSource%2BCode%2BPro;fillColor=#F2F2F2;" parent="1" vertex="1">
          <mxGeometry x="-30" y="220" width="90" height="90" as="geometry" />
        </mxCell>
        <mxCell id="jyPOKYWJDwKyRrshBXNK-8" value="&amp;nbsp;&lt;br&gt;&lt;font color=&quot;#0433ff&quot;&gt;⌘&lt;/font&gt; E &lt;font color=&quot;#ff0000&quot;&gt;↓&lt;/font&gt;&lt;br&gt;&lt;font color=&quot;#ff0080&quot;&gt;VolDn&lt;/font&gt;" style="rounded=1;whiteSpace=wrap;html=1;fontFamily=Source Code Pro;fontSource=https%3A%2F%2Ffonts.googleapis.com%2Fcss%3Ffamily%3DSource%2BCode%2BPro;fillColor=#F2F2F2;" parent="1" vertex="1">
          <mxGeometry x="70" y="220" width="90" height="90" as="geometry" />
        </mxCell>
        <mxCell id="jyPOKYWJDwKyRrshBXNK-9" value="&amp;nbsp;&lt;br&gt;&lt;font color=&quot;#0433ff&quot;&gt;^ &lt;/font&gt;Y &lt;font color=&quot;#ff0000&quot;&gt;→&lt;/font&gt;&lt;br&gt;&lt;font color=&quot;#ff0080&quot;&gt;&amp;nbsp;Play&lt;/font&gt;" style="rounded=1;whiteSpace=wrap;html=1;fontFamily=Source Code Pro;fontSource=https%3A%2F%2Ffonts.googleapis.com%2Fcss%3Ffamily%3DSource%2BCode%2BPro;fillColor=#F2F2F2;" parent="1" vertex="1">
          <mxGeometry x="170" y="220" width="90" height="90" as="geometry" />
        </mxCell>
        <mxCell id="jyPOKYWJDwKyRrshBXNK-10" value="&lt;br&gt;&amp;nbsp;G &amp;nbsp;&lt;br&gt;&amp;nbsp; &amp;nbsp;&amp;nbsp;" style="rounded=1;whiteSpace=wrap;html=1;fontFamily=Source Code Pro;fontSource=https%3A%2F%2Ffonts.googleapis.com%2Fcss%3Ffamily%3DSource%2BCode%2BPro;fillColor=#F2F2F2;" parent="1" vertex="1">
          <mxGeometry x="270" y="220" width="90" height="90" as="geometry" />
        </mxCell>
        <mxCell id="jyPOKYWJDwKyRrshBXNK-11" value=";&lt;br&gt;&amp;nbsp; , &lt;font color=&quot;#ff0000&quot;&gt;↖&lt;br&gt;&lt;/font&gt;&amp;nbsp;" style="rounded=1;whiteSpace=wrap;html=1;fontFamily=Source Code Pro;fontSource=https%3A%2F%2Ffonts.googleapis.com%2Fcss%3Ffamily%3DSource%2BCode%2BPro;fillColor=#F2F2F2;" parent="1" vertex="1">
          <mxGeometry x="-130" y="320" width="90" height="90" as="geometry" />
        </mxCell>
        <mxCell id="jyPOKYWJDwKyRrshBXNK-12" value=":&lt;br&gt;&amp;nbsp; . &lt;font color=&quot;#ff0000&quot;&gt;⇞&lt;/font&gt;&lt;br&gt;&lt;font color=&quot;#ff0080&quot;&gt;DFINE&lt;/font&gt;" style="rounded=1;whiteSpace=wrap;html=1;fontFamily=Source Code Pro;fontSource=https%3A%2F%2Ffonts.googleapis.com%2Fcss%3Ffamily%3DSource%2BCode%2BPro;fillColor=#F2F2F2;" parent="1" vertex="1">
          <mxGeometry x="-30" y="320" width="90" height="90" as="geometry" />
        </mxCell>
        <mxCell id="jyPOKYWJDwKyRrshBXNK-13" value="? &amp;nbsp;- &lt;font color=&quot;#ff0000&quot;&gt;⇟&lt;/font&gt;&lt;br&gt;&lt;font color=&quot;#ff0080&quot;&gt;GTRNS&lt;/font&gt;" style="rounded=1;whiteSpace=wrap;html=1;fontFamily=Source Code Pro;fontSource=https%3A%2F%2Ffonts.googleapis.com%2Fcss%3Ffamily%3DSource%2BCode%2BPro;fillColor=#F2F2F2;" parent="1" vertex="1">
          <mxGeometry x="70" y="320" width="90" height="90" as="geometry" />
        </mxCell>
        <mxCell id="jyPOKYWJDwKyRrshBXNK-14" value="&amp;nbsp; C &lt;font color=&quot;#ff0000&quot;&gt;↘&lt;/font&gt;&lt;br&gt;&lt;font color=&quot;#ff0080&quot;&gt;GOOGL&lt;/font&gt;" style="rounded=1;whiteSpace=wrap;html=1;fontFamily=Source Code Pro;fontSource=https%3A%2F%2Ffonts.googleapis.com%2Fcss%3Ffamily%3DSource%2BCode%2BPro;fillColor=#F2F2F2;" parent="1" vertex="1">
          <mxGeometry x="170" y="320" width="90" height="90" as="geometry" />
        </mxCell>
        <mxCell id="jyPOKYWJDwKyRrshBXNK-15" value="&lt;br&gt;&lt;font color=&quot;#0433ff&quot;&gt;&lt;span style=&quot;caret-color: rgb(4, 51, 255);&quot;&gt;&amp;nbsp;&lt;/span&gt;&lt;/font&gt; J &amp;nbsp;&lt;br&gt;&lt;font color=&quot;#00cf68&quot;&gt;&lt;span style=&quot;caret-color: rgb(0, 207, 104);&quot;&gt;&amp;nbsp;&lt;/span&gt;&lt;/font&gt; &amp;nbsp; &amp;nbsp;" style="rounded=1;whiteSpace=wrap;html=1;fontFamily=Source Code Pro;fontSource=https%3A%2F%2Ffonts.googleapis.com%2Fcss%3Ffamily%3DSource%2BCode%2BPro;fillColor=#F2F2F2;" parent="1" vertex="1">
          <mxGeometry x="270" y="320" width="90" height="90" as="geometry" />
        </mxCell>
        <mxCell id="jyPOKYWJDwKyRrshBXNK-17" value="SPC" style="rounded=1;whiteSpace=wrap;html=1;fontFamily=Source Code Pro;fontSource=https%3A%2F%2Ffonts.googleapis.com%2Fcss%3Ffamily%3DSource%2BCode%2BPro;fillColor=#F2F2F2;" parent="1" vertex="1">
          <mxGeometry x="270" y="420" width="90" height="90" as="geometry" />
        </mxCell>
        <mxCell id="jyPOKYWJDwKyRrshBXNK-18" value="&lt;font color=&quot;#0433ff&quot;&gt;&amp;nbsp; &amp;nbsp; &amp;nbsp;&lt;br&gt;&lt;span style=&quot;caret-color: rgb(4, 51, 255);&quot;&gt;+&lt;/span&gt;&lt;/font&gt; Q &amp;nbsp;&lt;br&gt;&lt;font color=&quot;#00cf68&quot;&gt;&amp;nbsp; &amp;nbsp;&amp;nbsp;&lt;/font&gt;" style="rounded=1;whiteSpace=wrap;html=1;fontFamily=Source Code Pro;fontSource=https%3A%2F%2Ffonts.googleapis.com%2Fcss%3Ffamily%3DSource%2BCode%2BPro;fillColor=#F2F2F2;" parent="1" vertex="1">
          <mxGeometry x="490" y="120" width="90" height="90" as="geometry" />
        </mxCell>
        <mxCell id="jyPOKYWJDwKyRrshBXNK-19" value="&lt;font color=&quot;#0433ff&quot;&gt;&amp;nbsp; &amp;nbsp; &amp;nbsp;&lt;br&gt;7&lt;/font&gt; V &amp;nbsp;&lt;br&gt;&lt;font color=&quot;#006600&quot;&gt;[ &amp;nbsp; &amp;nbsp;&lt;/font&gt;" style="rounded=1;whiteSpace=wrap;html=1;fontFamily=Source Code Pro;fontSource=https%3A%2F%2Ffonts.googleapis.com%2Fcss%3Ffamily%3DSource%2BCode%2BPro;fillColor=#F2F2F2;" parent="1" vertex="1">
          <mxGeometry x="590" y="120" width="90" height="90" as="geometry" />
        </mxCell>
        <mxCell id="jyPOKYWJDwKyRrshBXNK-20" value="&lt;font color=&quot;#0433ff&quot;&gt;&amp;nbsp;&amp;nbsp;&lt;br&gt;8&lt;/font&gt; D &amp;nbsp;&lt;br&gt;&lt;font color=&quot;#006600&quot;&gt;]&lt;/font&gt;&lt;font color=&quot;#00cf68&quot;&gt; &amp;nbsp; &amp;nbsp;&lt;/font&gt;" style="rounded=1;whiteSpace=wrap;html=1;fontFamily=Source Code Pro;fontSource=https%3A%2F%2Ffonts.googleapis.com%2Fcss%3Ffamily%3DSource%2BCode%2BPro;fillColor=#F2F2F2;" parent="1" vertex="1">
          <mxGeometry x="690" y="120" width="90" height="90" as="geometry" />
        </mxCell>
        <mxCell id="jyPOKYWJDwKyRrshBXNK-21" value="&lt;font color=&quot;#0433ff&quot;&gt;&amp;nbsp; &amp;nbsp; &amp;nbsp;&lt;br&gt;9&lt;/font&gt; R &amp;nbsp;&lt;br&gt;&lt;font color=&quot;#006600&quot;&gt;:&lt;/font&gt;&lt;font color=&quot;#00cf68&quot;&gt; &amp;nbsp; &amp;nbsp;&lt;/font&gt;" style="rounded=1;whiteSpace=wrap;html=1;fontFamily=Source Code Pro;fontSource=https%3A%2F%2Ffonts.googleapis.com%2Fcss%3Ffamily%3DSource%2BCode%2BPro;fillColor=#F2F2F2;" parent="1" vertex="1">
          <mxGeometry x="790" y="120" width="90" height="90" as="geometry" />
        </mxCell>
        <mxCell id="jyPOKYWJDwKyRrshBXNK-22" value="&lt;font color=&quot;#0433ff&quot;&gt;&amp;nbsp; &amp;nbsp; &amp;nbsp;&lt;br&gt;*&lt;/font&gt; F &amp;nbsp;&lt;br&gt;&lt;font color=&quot;#006600&quot;&gt;^&lt;/font&gt;&lt;font color=&quot;#00cf68&quot;&gt; &amp;nbsp; &amp;nbsp;&lt;/font&gt;" style="rounded=1;whiteSpace=wrap;html=1;fontFamily=Source Code Pro;fontSource=https%3A%2F%2Ffonts.googleapis.com%2Fcss%3Ffamily%3DSource%2BCode%2BPro;fillColor=#F2F2F2;" parent="1" vertex="1">
          <mxGeometry x="890" y="120" width="90" height="90" as="geometry" />
        </mxCell>
        <mxCell id="jyPOKYWJDwKyRrshBXNK-23" value="&lt;font color=&quot;#0433ff&quot;&gt;&amp;nbsp; &amp;nbsp; &amp;nbsp;&lt;/font&gt;&lt;br&gt;&lt;font color=&quot;#0433ff&quot;&gt;-&amp;nbsp;&lt;/font&gt;L &amp;nbsp;&lt;br&gt;&lt;font color=&quot;#006600&quot;&gt;;&lt;/font&gt;&lt;font color=&quot;#00cf68&quot;&gt; &amp;nbsp; &amp;nbsp;&lt;/font&gt;" style="rounded=1;whiteSpace=wrap;html=1;fontFamily=Source Code Pro;fontSource=https%3A%2F%2Ffonts.googleapis.com%2Fcss%3Ffamily%3DSource%2BCode%2BPro;fillColor=#F2F2F2;" parent="1" vertex="1">
          <mxGeometry x="490" y="220" width="90" height="90" as="geometry" />
        </mxCell>
        <mxCell id="jyPOKYWJDwKyRrshBXNK-24" value="&lt;font color=&quot;#0433ff&quot;&gt;&amp;nbsp; &amp;nbsp; &lt;br&gt;&amp;nbsp;&amp;nbsp;&lt;br&gt;4&lt;/font&gt; H &lt;font color=&quot;#ff0000&quot;&gt;^&lt;/font&gt;&lt;br&gt;&lt;font color=&quot;#006600&quot;&gt;&amp;lt; &amp;nbsp; &amp;nbsp;&lt;br&gt;(&lt;/font&gt; &amp;nbsp; &amp;nbsp;&lt;font color=&quot;#00cf68&quot;&gt;&lt;br&gt;&lt;/font&gt;" style="rounded=1;whiteSpace=wrap;html=1;fontFamily=Source Code Pro;fontSource=https%3A%2F%2Ffonts.googleapis.com%2Fcss%3Ffamily%3DSource%2BCode%2BPro;fillColor=#F2F2F2;" parent="1" vertex="1">
          <mxGeometry x="590" y="220" width="90" height="90" as="geometry" />
        </mxCell>
        <mxCell id="jyPOKYWJDwKyRrshBXNK-25" value="&lt;font color=&quot;#0433ff&quot;&gt;&amp;nbsp;&lt;br&gt;&amp;nbsp; &amp;nbsp;&amp;nbsp;&lt;/font&gt;&lt;br&gt;&lt;font color=&quot;#0433ff&quot;&gt;5&lt;/font&gt; T &lt;font color=&quot;#ff0000&quot;&gt;⌘&lt;br&gt;&lt;/font&gt;&lt;font color=&quot;#00cf68&quot;&gt;&amp;nbsp;&lt;/font&gt;&lt;font color=&quot;#006600&quot;&gt;&amp;gt;&lt;/font&gt;&lt;font color=&quot;#00cf68&quot;&gt; &amp;nbsp; &amp;nbsp;&amp;nbsp;&lt;br&gt;&lt;/font&gt;&lt;font color=&quot;#006600&quot;&gt;)&lt;/font&gt;&lt;font color=&quot;#00cf68&quot;&gt;&amp;nbsp; &amp;nbsp;&amp;nbsp;&lt;/font&gt;" style="rounded=1;whiteSpace=wrap;html=1;fontFamily=Source Code Pro;fontSource=https%3A%2F%2Ffonts.googleapis.com%2Fcss%3Ffamily%3DSource%2BCode%2BPro;fillColor=#F2F2F2;" parent="1" vertex="1">
          <mxGeometry x="690" y="220" width="90" height="90" as="geometry" />
        </mxCell>
        <mxCell id="jyPOKYWJDwKyRrshBXNK-26" value="&lt;font color=&quot;#0433ff&quot;&gt;&amp;nbsp; &amp;nbsp; &amp;nbsp;&lt;/font&gt;&lt;br&gt;&lt;font color=&quot;#0433ff&quot;&gt;6&lt;/font&gt; N &lt;font color=&quot;#ff0000&quot;&gt;⌥&lt;/font&gt;&lt;br&gt;&lt;font color=&quot;#006600&quot;&gt;&amp;amp;&lt;/font&gt;&lt;font color=&quot;#00cf68&quot;&gt; &amp;nbsp; &amp;nbsp;&lt;/font&gt;" style="rounded=1;whiteSpace=wrap;html=1;fontFamily=Source Code Pro;fontSource=https%3A%2F%2Ffonts.googleapis.com%2Fcss%3Ffamily%3DSource%2BCode%2BPro;fillColor=#F2F2F2;" parent="1" vertex="1">
          <mxGeometry x="790" y="220" width="90" height="90" as="geometry" />
        </mxCell>
        <mxCell id="jyPOKYWJDwKyRrshBXNK-27" value="&lt;font color=&quot;#0433ff&quot;&gt;&amp;nbsp; &amp;nbsp; &amp;nbsp;&lt;/font&gt;&lt;br&gt;&lt;font color=&quot;#0433ff&quot;&gt;/&lt;/font&gt; S &lt;font color=&quot;#ff0000&quot;&gt;⇧&lt;br&gt;&lt;/font&gt;&lt;font color=&quot;#006600&quot;&gt;?&lt;/font&gt;&lt;font color=&quot;#00cf68&quot;&gt; &amp;nbsp; &amp;nbsp;&lt;/font&gt;" style="rounded=1;whiteSpace=wrap;html=1;fontFamily=Source Code Pro;fontSource=https%3A%2F%2Ffonts.googleapis.com%2Fcss%3Ffamily%3DSource%2BCode%2BPro;fillColor=#F2F2F2;" parent="1" vertex="1">
          <mxGeometry x="890" y="220" width="90" height="90" as="geometry" />
        </mxCell>
        <mxCell id="jyPOKYWJDwKyRrshBXNK-28" value="&lt;font color=&quot;#0433ff&quot;&gt;&amp;nbsp; &amp;nbsp;&lt;/font&gt;&lt;br&gt;&lt;font color=&quot;#0433ff&quot;&gt;&lt;span style=&quot;caret-color: rgb(4, 51, 255);&quot;&gt;=&lt;/span&gt;&lt;/font&gt; K &amp;nbsp;&lt;br&gt;&lt;font color=&quot;#006600&quot;&gt;|&lt;/font&gt;&lt;font color=&quot;#00cf68&quot;&gt; &amp;nbsp; &amp;nbsp;&lt;/font&gt;" style="rounded=1;whiteSpace=wrap;html=1;fontFamily=Source Code Pro;fontSource=https%3A%2F%2Ffonts.googleapis.com%2Fcss%3Ffamily%3DSource%2BCode%2BPro;fillColor=#F2F2F2;" parent="1" vertex="1">
          <mxGeometry x="490" y="320" width="90" height="90" as="geometry" />
        </mxCell>
        <mxCell id="jyPOKYWJDwKyRrshBXNK-29" value="&lt;font color=&quot;#0433ff&quot;&gt;&lt;span style=&quot;caret-color: rgb(4, 51, 255);&quot;&gt;&amp;nbsp;&lt;/span&gt;&lt;/font&gt;&lt;br&gt;&lt;font color=&quot;#0433ff&quot;&gt;1 &lt;/font&gt;M &amp;nbsp;&lt;br&gt;&lt;font color=&quot;#006600&quot;&gt;{&lt;/font&gt;&lt;font color=&quot;#00cf68&quot;&gt; &amp;nbsp; &amp;nbsp;&lt;/font&gt;" style="rounded=1;whiteSpace=wrap;html=1;fontFamily=Source Code Pro;fontSource=https%3A%2F%2Ffonts.googleapis.com%2Fcss%3Ffamily%3DSource%2BCode%2BPro;fillColor=#F2F2F2;" parent="1" vertex="1">
          <mxGeometry x="590" y="320" width="90" height="90" as="geometry" />
        </mxCell>
        <mxCell id="jyPOKYWJDwKyRrshBXNK-30" value="&lt;font color=&quot;#0433ff&quot;&gt;&lt;br&gt;2&lt;/font&gt; B &amp;nbsp;&lt;br&gt;&lt;font color=&quot;#006600&quot;&gt;}&lt;/font&gt;&lt;font color=&quot;#00cf68&quot;&gt; &amp;nbsp; &amp;nbsp;&lt;/font&gt;" style="rounded=1;whiteSpace=wrap;html=1;fontFamily=Source Code Pro;fontSource=https%3A%2F%2Ffonts.googleapis.com%2Fcss%3Ffamily%3DSource%2BCode%2BPro;fillColor=#F2F2F2;" parent="1" vertex="1">
          <mxGeometry x="690" y="320" width="90" height="90" as="geometry" />
        </mxCell>
        <mxCell id="jyPOKYWJDwKyRrshBXNK-31" value="&lt;font color=&quot;#0433ff&quot;&gt;&amp;nbsp; &amp;nbsp; &amp;nbsp;&lt;/font&gt;&lt;br&gt;&lt;font color=&quot;#0433ff&quot;&gt;3&lt;/font&gt; X &amp;nbsp;&lt;br&gt;&lt;font color=&quot;#006600&quot;&gt;@&lt;/font&gt;&lt;font color=&quot;#00cf68&quot;&gt; &amp;nbsp; &amp;nbsp;&lt;/font&gt;" style="rounded=1;whiteSpace=wrap;html=1;fontFamily=Source Code Pro;fontSource=https%3A%2F%2Ffonts.googleapis.com%2Fcss%3Ffamily%3DSource%2BCode%2BPro;fillColor=#F2F2F2;" parent="1" vertex="1">
          <mxGeometry x="790" y="320" width="90" height="90" as="geometry" />
        </mxCell>
        <mxCell id="jyPOKYWJDwKyRrshBXNK-32" value="&lt;font color=&quot;#0433ff&quot;&gt;&amp;nbsp; &amp;nbsp; &amp;nbsp;&lt;/font&gt;&lt;br&gt;&lt;font color=&quot;#0433ff&quot;&gt;0&lt;/font&gt; Z &amp;nbsp;&lt;br&gt;&lt;font color=&quot;#006600&quot;&gt;_&lt;/font&gt;&lt;font color=&quot;#00cf68&quot;&gt; &amp;nbsp; &amp;nbsp;&lt;/font&gt;" style="rounded=1;whiteSpace=wrap;html=1;fontFamily=Source Code Pro;fontSource=https%3A%2F%2Ffonts.googleapis.com%2Fcss%3Ffamily%3DSource%2BCode%2BPro;fillColor=#F2F2F2;" parent="1" vertex="1">
          <mxGeometry x="890" y="320" width="90" height="90" as="geometry" />
        </mxCell>
        <mxCell id="jyPOKYWJDwKyRrshBXNK-33" value="&lt;font color=&quot;#0433ff&quot;&gt;&amp;nbsp;&lt;br&gt;#&lt;span style=&quot;caret-color: rgb(4, 51, 255);&quot;&gt; &lt;/span&gt;&lt;/font&gt;⇧ &amp;nbsp;&lt;br&gt;&lt;font color=&quot;#006600&quot;&gt;! &amp;nbsp; &amp;nbsp;&lt;/font&gt;" style="rounded=1;whiteSpace=wrap;html=1;fontFamily=Source Code Pro;fontSource=https%3A%2F%2Ffonts.googleapis.com%2Fcss%3Ffamily%3DSource%2BCode%2BPro;fillColor=#F2F2F2;" parent="1" vertex="1">
          <mxGeometry x="490" y="420" width="90" height="90" as="geometry" />
        </mxCell>
        <mxCell id="jyPOKYWJDwKyRrshBXNK-16" value="&lt;font&gt;⌦&lt;font color=&quot;#0433ff&quot;&gt;&lt;br&gt;NUM&lt;/font&gt;&lt;br&gt;&lt;font color=&quot;#ff0080&quot;&gt;&amp;nbsp;&lt;/font&gt;&lt;br&gt;&lt;/font&gt;" style="rounded=1;whiteSpace=wrap;html=1;fontColor=default;fontFamily=Source Code Pro;fontSource=https%3A%2F%2Ffonts.googleapis.com%2Fcss%3Ffamily%3DSource%2BCode%2BPro;fillColor=#F2F2F2;" parent="1" vertex="1">
          <mxGeometry x="170" y="420" width="90" height="90" as="geometry" />
        </mxCell>
        <mxCell id="jyPOKYWJDwKyRrshBXNK-34" value="&lt;font&gt;&amp;nbsp;⌫&lt;font color=&quot;#ff2600&quot;&gt;&amp;nbsp;&lt;br&gt;&lt;/font&gt;&lt;font color=&quot;#0433ff&quot;&gt;%&lt;/font&gt;&amp;nbsp;&lt;font color=&quot;#ff2600&quot;&gt;NAV&lt;br&gt;&lt;/font&gt;&lt;font color=&quot;#006600&quot;&gt;$&lt;/font&gt;&lt;font color=&quot;#00cf68&quot;&gt;&amp;nbsp; &amp;nbsp;&amp;nbsp;&lt;/font&gt;&lt;br style=&quot;border-color: var(--border-color); caret-color: rgb(0, 207, 104); color: rgb(0, 207, 104);&quot;&gt;&lt;/font&gt;" style="rounded=1;whiteSpace=wrap;html=1;fontColor=default;fontFamily=Source Code Pro;fontSource=https%3A%2F%2Ffonts.googleapis.com%2Fcss%3Ffamily%3DSource%2BCode%2BPro;fillColor=#F2F2F2;" parent="1" vertex="1">
          <mxGeometry x="590" y="420" width="90" height="90" as="geometry" />
        </mxCell>
        <mxCell id="bBboNH131pnvcR7fshqm-1" value="&lt;font style=&quot;font-size: 12px;&quot;&gt;&lt;font color=&quot;#ff0000&quot;&gt;&amp;nbsp; &amp;nbsp;&amp;nbsp;&lt;/font&gt;&lt;br&gt;&amp;nbsp; ⇥&amp;nbsp;&lt;/font&gt;&lt;font color=&quot;#ff0000&quot;&gt;&lt;span style=&quot;caret-color: rgb(77, 81, 86); font-size: 14px; text-align: left;&quot;&gt;⎋&lt;br&gt;&lt;/span&gt;&amp;nbsp;SYM&amp;nbsp;&lt;/font&gt;&lt;span style=&quot;text-align: start; caret-color: rgb(0, 0, 0);&quot;&gt;&lt;font style=&quot;font-size: 12px;&quot;&gt;&lt;br&gt;&lt;/font&gt;&lt;/span&gt;" style="rounded=1;whiteSpace=wrap;html=1;fontColor=#000000;strokeColor=#000000;fontFamily=Source Code Pro;fontSource=https%3A%2F%2Ffonts.googleapis.com%2Fcss%3Ffamily%3DSource%2BCode%2BPro;fillColor=#F2F2F2;" parent="1" vertex="1">
          <mxGeometry x="70" y="420" width="90" height="90" as="geometry" />
        </mxCell>
        <mxCell id="bBboNH131pnvcR7fshqm-2" value="&lt;font style=&quot;font-size: 12px;&quot;&gt;&amp;nbsp;↩ &amp;nbsp;&lt;br&gt;&lt;/font&gt;&lt;font color=&quot;#0433ff&quot;&gt;~&lt;/font&gt;&amp;nbsp;EXT&lt;br&gt;&lt;span style=&quot;text-align: start; caret-color: rgb(0, 0, 0);&quot;&gt;&lt;font style=&quot;font-size: 12px;&quot;&gt;&lt;font color=&quot;#006600&quot;&gt;`&lt;/font&gt;&lt;br&gt;&lt;/font&gt;&lt;/span&gt;" style="rounded=1;whiteSpace=wrap;html=1;fontColor=#000000;fontFamily=Source Code Pro;fontSource=https%3A%2F%2Ffonts.googleapis.com%2Fcss%3Ffamily%3DSource%2BCode%2BPro;fillColor=#F2F2F2;" parent="1" vertex="1">
          <mxGeometry x="690" y="420" width="90" height="90" as="geometry" />
        </mxCell>
        <mxCell id="rx5Ag137ocZ3iWV7Ir7C-4" value="¥" style="text;html=1;strokeColor=none;fillColor=none;align=center;verticalAlign=middle;whiteSpace=wrap;rounded=0;fontColor=#006600;" vertex="1" parent="1">
          <mxGeometry x="500" y="170" width="30" height="30" as="geometry" />
        </mxCell>
        <mxCell id="rx5Ag137ocZ3iWV7Ir7C-6" value="&lt;p style=&quot;margin: 0px; font-style: normal; font-variant-caps: normal; font-stretch: normal; font-size: 13px; line-height: normal; font-family: &amp;quot;Hiragino Sans&amp;quot;; font-size-adjust: none; font-kerning: auto; font-variant-alternates: normal; font-variant-ligatures: normal; font-variant-numeric: normal; font-variant-east-asian: normal; font-variant-position: normal; font-feature-settings: normal; font-optical-sizing: auto; font-variation-settings: normal;&quot;&gt;&lt;b&gt;い&lt;/b&gt;&lt;/p&gt;" style="text;html=1;strokeColor=none;fillColor=none;align=center;verticalAlign=middle;whiteSpace=wrap;rounded=0;" vertex="1" parent="1">
          <mxGeometry x="650" y="250" width="30" height="30" as="geometry" />
        </mxCell>
        <mxCell id="rx5Ag137ocZ3iWV7Ir7C-7" value="&lt;p style=&quot;margin: 0px; font-style: normal; font-variant-caps: normal; font-stretch: normal; font-size: 13px; line-height: normal; font-family: &amp;quot;Hiragino Sans&amp;quot;; font-size-adjust: none; font-kerning: auto; font-variant-alternates: normal; font-variant-ligatures: normal; font-variant-numeric: normal; font-variant-east-asian: normal; font-variant-position: normal; font-feature-settings: normal; font-optical-sizing: auto; font-variation-settings: normal;&quot;&gt;&lt;b&gt;う&lt;/b&gt;&lt;/p&gt;" style="text;html=1;strokeColor=none;fillColor=none;align=center;verticalAlign=middle;whiteSpace=wrap;rounded=0;" vertex="1" parent="1">
          <mxGeometry x="750" y="250" width="30" height="30" as="geometry" />
        </mxCell>
        <mxCell id="rx5Ag137ocZ3iWV7Ir7C-8" value="&lt;p style=&quot;margin: 0px; font-style: normal; font-variant-caps: normal; font-stretch: normal; font-size: 13px; line-height: normal; font-family: &amp;quot;Hiragino Sans&amp;quot;; font-size-adjust: none; font-kerning: auto; font-variant-alternates: normal; font-variant-ligatures: normal; font-variant-numeric: normal; font-variant-east-asian: normal; font-variant-position: normal; font-feature-settings: normal; font-optical-sizing: auto; font-variation-settings: normal;&quot;&gt;&lt;b&gt;っ&lt;/b&gt;&lt;/p&gt;" style="text;html=1;strokeColor=none;fillColor=none;align=center;verticalAlign=middle;whiteSpace=wrap;rounded=0;" vertex="1" parent="1">
          <mxGeometry x="950" y="350" width="30" height="30" as="geometry" />
        </mxCell>
        <mxCell id="rx5Ag137ocZ3iWV7Ir7C-9" value="&lt;p style=&quot;margin: 0px; font-style: normal; font-variant-caps: normal; font-stretch: normal; font-size: 13px; line-height: normal; font-family: &amp;quot;Hiragino Sans&amp;quot;; font-size-adjust: none; font-kerning: auto; font-variant-alternates: normal; font-variant-ligatures: normal; font-variant-numeric: normal; font-variant-east-asian: normal; font-variant-position: normal; font-feature-settings: normal; font-optical-sizing: auto; font-variation-settings: normal;&quot;&gt;&lt;b&gt;ん&lt;/b&gt;&lt;/p&gt;" style="text;html=1;strokeColor=none;fillColor=none;align=center;verticalAlign=middle;whiteSpace=wrap;rounded=0;" vertex="1" parent="1">
          <mxGeometry x="950" y="250" width="30" height="30" as="geometry" />
        </mxCell>
        <mxCell id="rx5Ag137ocZ3iWV7Ir7C-10" value="&lt;p style=&quot;margin: 0px; font-style: normal; font-variant-caps: normal; font-stretch: normal; font-size: 13px; line-height: normal; font-family: &amp;quot;Hiragino Sans&amp;quot;; font-size-adjust: none; font-kerning: auto; font-variant-alternates: normal; font-variant-ligatures: normal; font-variant-numeric: normal; font-variant-east-asian: normal; font-variant-position: normal; font-feature-settings: normal; font-optical-sizing: auto; font-variation-settings: normal;&quot;&gt;&lt;b&gt;を&lt;/b&gt;&lt;/p&gt;" style="text;html=1;strokeColor=none;fillColor=none;align=center;verticalAlign=middle;whiteSpace=wrap;rounded=0;" vertex="1" parent="1">
          <mxGeometry x="550" y="250" width="30" height="30" as="geometry" />
        </mxCell>
        <mxCell id="rx5Ag137ocZ3iWV7Ir7C-11" value="&lt;p style=&quot;margin: 0px; font-style: normal; font-variant-caps: normal; font-stretch: normal; font-size: 13px; line-height: normal; font-family: &amp;quot;Hiragino Sans&amp;quot;; font-size-adjust: none; font-kerning: auto; font-variant-alternates: normal; font-variant-ligatures: normal; font-variant-numeric: normal; font-variant-east-asian: normal; font-variant-position: normal; font-feature-settings: normal; font-optical-sizing: auto; font-variation-settings: normal;&quot;&gt;&lt;b&gt;し&lt;/b&gt;&lt;/p&gt;" style="text;html=1;strokeColor=none;fillColor=none;align=center;verticalAlign=middle;whiteSpace=wrap;rounded=0;" vertex="1" parent="1">
          <mxGeometry x="850" y="250" width="30" height="30" as="geometry" />
        </mxCell>
        <mxCell id="rx5Ag137ocZ3iWV7Ir7C-12" value="&lt;p style=&quot;margin: 0px; font-style: normal; font-variant-caps: normal; font-stretch: normal; font-size: 13px; line-height: normal; font-family: &amp;quot;Hiragino Sans&amp;quot;; font-size-adjust: none; font-kerning: auto; font-variant-alternates: normal; font-variant-ligatures: normal; font-variant-numeric: normal; font-variant-east-asian: normal; font-variant-position: normal; font-feature-settings: normal; font-optical-sizing: auto; font-variation-settings: normal;&quot;&gt;&lt;b&gt;。&lt;/b&gt;&lt;/p&gt;" style="text;html=1;strokeColor=none;fillColor=none;align=center;verticalAlign=middle;whiteSpace=wrap;rounded=0;" vertex="1" parent="1">
          <mxGeometry x="850" y="350" width="30" height="30" as="geometry" />
        </mxCell>
        <mxCell id="rx5Ag137ocZ3iWV7Ir7C-13" value="&lt;p style=&quot;margin: 0px; font-style: normal; font-variant-caps: normal; font-stretch: normal; font-size: 13px; line-height: normal; font-family: &amp;quot;Hiragino Sans&amp;quot;; font-size-adjust: none; font-kerning: auto; font-variant-alternates: normal; font-variant-ligatures: normal; font-variant-numeric: normal; font-variant-east-asian: normal; font-variant-position: normal; font-feature-settings: normal; font-optical-sizing: auto; font-variation-settings: normal;&quot;&gt;&lt;b&gt;き&lt;/b&gt;&lt;/p&gt;" style="text;html=1;strokeColor=none;fillColor=none;align=center;verticalAlign=middle;whiteSpace=wrap;rounded=0;" vertex="1" parent="1">
          <mxGeometry x="550" y="150" width="30" height="30" as="geometry" />
        </mxCell>
        <mxCell id="rx5Ag137ocZ3iWV7Ir7C-14" value="&lt;p style=&quot;margin: 0px; font-style: normal; font-variant-caps: normal; font-stretch: normal; font-size: 13px; line-height: normal; font-family: &amp;quot;Hiragino Sans&amp;quot;; font-size-adjust: none; font-kerning: auto; font-variant-alternates: normal; font-variant-ligatures: normal; font-variant-numeric: normal; font-variant-east-asian: normal; font-variant-position: normal; font-feature-settings: normal; font-optical-sizing: auto; font-variation-settings: normal;&quot;&gt;&lt;b&gt;、&lt;/b&gt;&lt;/p&gt;" style="text;html=1;strokeColor=none;fillColor=none;align=center;verticalAlign=middle;whiteSpace=wrap;rounded=0;" vertex="1" parent="1">
          <mxGeometry x="750" y="350" width="30" height="30" as="geometry" />
        </mxCell>
        <mxCell id="rx5Ag137ocZ3iWV7Ir7C-15" value="&lt;p style=&quot;margin: 0px; font-style: normal; font-variant-caps: normal; font-stretch: normal; font-size: 13px; line-height: normal; font-family: &amp;quot;Hiragino Sans&amp;quot;; font-size-adjust: none; font-kerning: auto; font-variant-alternates: normal; font-variant-ligatures: normal; font-variant-numeric: normal; font-variant-east-asian: normal; font-variant-position: normal; font-feature-settings: normal; font-optical-sizing: auto; font-variation-settings: normal;&quot;&gt;&lt;b&gt;の&lt;/b&gt;&lt;/p&gt;" style="text;html=1;strokeColor=none;fillColor=none;align=center;verticalAlign=middle;whiteSpace=wrap;rounded=0;" vertex="1" parent="1">
          <mxGeometry x="650" y="150" width="30" height="30" as="geometry" />
        </mxCell>
        <mxCell id="rx5Ag137ocZ3iWV7Ir7C-16" value="&lt;p style=&quot;margin: 0px; font-style: normal; font-variant-caps: normal; font-stretch: normal; font-size: 13px; line-height: normal; font-family: &amp;quot;Hiragino Sans&amp;quot;; font-size-adjust: none; font-kerning: auto; font-variant-alternates: normal; font-variant-ligatures: normal; font-variant-numeric: normal; font-variant-east-asian: normal; font-variant-position: normal; font-feature-settings: normal; font-optical-sizing: auto; font-variation-settings: normal;&quot;&gt;&lt;b&gt;つ&lt;/b&gt;&lt;/p&gt;" style="text;html=1;strokeColor=none;fillColor=none;align=center;verticalAlign=middle;whiteSpace=wrap;rounded=0;" vertex="1" parent="1">
          <mxGeometry x="650" y="350" width="30" height="30" as="geometry" />
        </mxCell>
        <mxCell id="rx5Ag137ocZ3iWV7Ir7C-17" value="&lt;p style=&quot;margin: 0px; font-style: normal; font-variant-caps: normal; font-stretch: normal; font-size: 13px; line-height: normal; font-family: &amp;quot;Hiragino Sans&amp;quot;; font-size-adjust: none; font-kerning: auto; font-variant-alternates: normal; font-variant-ligatures: normal; font-variant-numeric: normal; font-variant-east-asian: normal; font-variant-position: normal; font-feature-settings: normal; font-optical-sizing: auto; font-variation-settings: normal;&quot;&gt;&lt;b&gt;く&lt;/b&gt;&lt;/p&gt;" style="text;html=1;strokeColor=none;fillColor=none;align=center;verticalAlign=middle;whiteSpace=wrap;rounded=0;" vertex="1" parent="1">
          <mxGeometry x="750" y="150" width="30" height="30" as="geometry" />
        </mxCell>
        <mxCell id="rx5Ag137ocZ3iWV7Ir7C-18" value="&lt;p style=&quot;margin: 0px; font-style: normal; font-variant-caps: normal; font-stretch: normal; font-size: 13px; line-height: normal; font-family: &amp;quot;Hiragino Sans&amp;quot;; font-size-adjust: none; font-kerning: auto; font-variant-alternates: normal; font-variant-ligatures: normal; font-variant-numeric: normal; font-variant-east-asian: normal; font-variant-position: normal; font-feature-settings: normal; font-optical-sizing: auto; font-variation-settings: normal;&quot;&gt;&lt;b&gt;す&lt;/b&gt;&lt;/p&gt;" style="text;html=1;strokeColor=none;fillColor=none;align=center;verticalAlign=middle;whiteSpace=wrap;rounded=0;" vertex="1" parent="1">
          <mxGeometry x="550" y="350" width="30" height="30" as="geometry" />
        </mxCell>
        <mxCell id="rx5Ag137ocZ3iWV7Ir7C-19" value="&lt;p style=&quot;margin: 0px; font-style: normal; font-variant-caps: normal; font-stretch: normal; font-size: 13px; line-height: normal; font-family: &amp;quot;Hiragino Sans&amp;quot;; font-size-adjust: none; font-kerning: auto; font-variant-alternates: normal; font-variant-ligatures: normal; font-variant-numeric: normal; font-variant-east-asian: normal; font-variant-position: normal; font-feature-settings: normal; font-optical-sizing: auto; font-variation-settings: normal;&quot;&gt;&lt;b&gt;れ&lt;/b&gt;&lt;/p&gt;" style="text;html=1;strokeColor=none;fillColor=none;align=center;verticalAlign=middle;whiteSpace=wrap;rounded=0;" vertex="1" parent="1">
          <mxGeometry x="950" y="150" width="30" height="30" as="geometry" />
        </mxCell>
        <mxCell id="rx5Ag137ocZ3iWV7Ir7C-20" value="&lt;p style=&quot;margin: 0px; font-style: normal; font-variant-caps: normal; font-stretch: normal; font-size: 13px; line-height: normal; font-family: &amp;quot;Hiragino Sans&amp;quot;; font-size-adjust: none; font-kerning: auto; font-variant-alternates: normal; font-variant-ligatures: normal; font-variant-numeric: normal; font-variant-east-asian: normal; font-variant-position: normal; font-feature-settings: normal; font-optical-sizing: auto; font-variation-settings: normal;&quot;&gt;&lt;b&gt;あ&lt;/b&gt;&lt;/p&gt;" style="text;html=1;strokeColor=none;fillColor=none;align=center;verticalAlign=middle;whiteSpace=wrap;rounded=0;" vertex="1" parent="1">
          <mxGeometry x="850" y="150" width="30" height="30" as="geometry" />
        </mxCell>
        <mxCell id="rx5Ag137ocZ3iWV7Ir7C-23" value="&lt;p style=&quot;margin: 0px; font-style: normal; font-variant-caps: normal; font-stretch: normal; font-size: 13px; line-height: normal; font-family: &amp;quot;Hiragino Sans&amp;quot;; font-size-adjust: none; font-kerning: auto; font-variant-alternates: normal; font-variant-ligatures: normal; font-variant-numeric: normal; font-variant-east-asian: normal; font-variant-position: normal; font-feature-settings: normal; font-optical-sizing: auto; font-variation-settings: normal;&quot;&gt;&lt;b&gt;と&lt;/b&gt;&lt;/p&gt;" style="text;html=1;strokeColor=none;fillColor=none;align=center;verticalAlign=middle;whiteSpace=wrap;rounded=0;" vertex="1" parent="1">
          <mxGeometry x="30" y="250" width="30" height="30" as="geometry" />
        </mxCell>
        <mxCell id="rx5Ag137ocZ3iWV7Ir7C-24" value="&lt;p style=&quot;margin: 0px; font-style: normal; font-variant-caps: normal; font-stretch: normal; font-size: 13px; line-height: normal; font-family: &amp;quot;Hiragino Sans&amp;quot;; font-size-adjust: none; font-kerning: auto; font-variant-alternates: normal; font-variant-ligatures: normal; font-variant-numeric: normal; font-variant-east-asian: normal; font-variant-position: normal; font-feature-settings: normal; font-optical-sizing: auto; font-variation-settings: normal;&quot;&gt;&lt;b&gt;た&lt;/b&gt;&lt;/p&gt;" style="text;html=1;strokeColor=none;fillColor=none;align=center;verticalAlign=middle;whiteSpace=wrap;rounded=0;" vertex="1" parent="1">
          <mxGeometry x="-70" y="250" width="30" height="30" as="geometry" />
        </mxCell>
        <mxCell id="rx5Ag137ocZ3iWV7Ir7C-25" value="&lt;p style=&quot;margin: 0px; font-style: normal; font-variant-caps: normal; font-stretch: normal; font-size: 13px; line-height: normal; font-family: &amp;quot;Hiragino Sans&amp;quot;; font-size-adjust: none; font-kerning: auto; font-variant-alternates: normal; font-variant-ligatures: normal; font-variant-numeric: normal; font-variant-east-asian: normal; font-variant-position: normal; font-feature-settings: normal; font-optical-sizing: auto; font-variation-settings: normal;&quot;&gt;&lt;b&gt;か&lt;/b&gt;&lt;/p&gt;" style="text;html=1;strokeColor=none;fillColor=none;align=center;verticalAlign=middle;whiteSpace=wrap;rounded=0;" vertex="1" parent="1">
          <mxGeometry x="130" y="250" width="30" height="30" as="geometry" />
        </mxCell>
        <mxCell id="rx5Ag137ocZ3iWV7Ir7C-26" value="&lt;p style=&quot;margin: 0px; font-style: normal; font-variant-caps: normal; font-stretch: normal; font-size: 13px; line-height: normal; font-family: &amp;quot;Hiragino Sans&amp;quot;; font-size-adjust: none; font-kerning: auto; font-variant-alternates: normal; font-variant-ligatures: normal; font-variant-numeric: normal; font-variant-east-asian: normal; font-variant-position: normal; font-feature-settings: normal; font-optical-sizing: auto; font-variation-settings: normal;&quot;&gt;&lt;b&gt;て&lt;/b&gt;&lt;/p&gt;" style="text;html=1;strokeColor=none;fillColor=none;align=center;verticalAlign=middle;whiteSpace=wrap;rounded=0;" vertex="1" parent="1">
          <mxGeometry x="230" y="250" width="30" height="30" as="geometry" />
        </mxCell>
        <mxCell id="rx5Ag137ocZ3iWV7Ir7C-27" value="&lt;p style=&quot;margin: 0px; font-style: normal; font-variant-caps: normal; font-stretch: normal; font-size: 13px; line-height: normal; font-family: &amp;quot;Hiragino Sans&amp;quot;; font-size-adjust: none; font-kerning: auto; font-variant-alternates: normal; font-variant-ligatures: normal; font-variant-numeric: normal; font-variant-east-asian: normal; font-variant-position: normal; font-feature-settings: normal; font-optical-sizing: auto; font-variation-settings: normal;&quot;&gt;&lt;b&gt;ま&lt;/b&gt;&lt;/p&gt;" style="text;html=1;strokeColor=none;fillColor=none;align=center;verticalAlign=middle;whiteSpace=wrap;rounded=0;" vertex="1" parent="1">
          <mxGeometry x="-70" y="350" width="30" height="30" as="geometry" />
        </mxCell>
        <mxCell id="rx5Ag137ocZ3iWV7Ir7C-28" value="&lt;p style=&quot;margin: 0px; font-style: normal; font-variant-caps: normal; font-stretch: normal; font-size: 13px; line-height: normal; font-family: &amp;quot;Hiragino Sans&amp;quot;; font-size-adjust: none; font-kerning: auto; font-variant-alternates: normal; font-variant-ligatures: normal; font-variant-numeric: normal; font-variant-east-asian: normal; font-variant-position: normal; font-feature-settings: normal; font-optical-sizing: auto; font-variation-settings: normal;&quot;&gt;&lt;b&gt;な&lt;/b&gt;&lt;/p&gt;" style="text;html=1;strokeColor=none;fillColor=none;align=center;verticalAlign=middle;whiteSpace=wrap;rounded=0;" vertex="1" parent="1">
          <mxGeometry x="330" y="350" width="30" height="30" as="geometry" />
        </mxCell>
        <mxCell id="rx5Ag137ocZ3iWV7Ir7C-29" value="&lt;p style=&quot;margin: 0px; font-style: normal; font-variant-caps: normal; font-stretch: normal; font-size: 13px; line-height: normal; font-family: &amp;quot;Hiragino Sans&amp;quot;; font-size-adjust: none; font-kerning: auto; font-variant-alternates: normal; font-variant-ligatures: normal; font-variant-numeric: normal; font-variant-east-asian: normal; font-variant-position: normal; font-feature-settings: normal; font-optical-sizing: auto; font-variation-settings: normal;&quot;&gt;&lt;b&gt;り&lt;/b&gt;&lt;/p&gt;" style="text;html=1;strokeColor=none;fillColor=none;align=center;verticalAlign=middle;whiteSpace=wrap;rounded=0;" vertex="1" parent="1">
          <mxGeometry x="30" y="350" width="30" height="30" as="geometry" />
        </mxCell>
        <mxCell id="rx5Ag137ocZ3iWV7Ir7C-30" value="&lt;p style=&quot;margin: 0px; font-style: normal; font-variant-caps: normal; font-stretch: normal; font-size: 13px; line-height: normal; font-family: &amp;quot;Hiragino Sans&amp;quot;; font-size-adjust: none; font-kerning: auto; font-variant-alternates: normal; font-variant-ligatures: normal; font-variant-numeric: normal; font-variant-east-asian: normal; font-variant-position: normal; font-feature-settings: normal; font-optical-sizing: auto; font-variation-settings: normal;&quot;&gt;&lt;b&gt;も&lt;/b&gt;&lt;/p&gt;" style="text;html=1;strokeColor=none;fillColor=none;align=center;verticalAlign=middle;whiteSpace=wrap;rounded=0;" vertex="1" parent="1">
          <mxGeometry x="330" y="250" width="30" height="30" as="geometry" />
        </mxCell>
        <mxCell id="rx5Ag137ocZ3iWV7Ir7C-31" value="&lt;p style=&quot;margin: 0px; font-style: normal; font-variant-caps: normal; font-stretch: normal; font-size: 13px; line-height: normal; font-family: &amp;quot;Hiragino Sans&amp;quot;; font-size-adjust: none; font-kerning: auto; font-variant-alternates: normal; font-variant-ligatures: normal; font-variant-numeric: normal; font-variant-east-asian: normal; font-variant-position: normal; font-feature-settings: normal; font-optical-sizing: auto; font-variation-settings: normal;&quot;&gt;&lt;b&gt;に&lt;/b&gt;&lt;/p&gt;" style="text;html=1;strokeColor=none;fillColor=none;align=center;verticalAlign=middle;whiteSpace=wrap;rounded=0;" vertex="1" parent="1">
          <mxGeometry x="130" y="350" width="30" height="30" as="geometry" />
        </mxCell>
        <mxCell id="rx5Ag137ocZ3iWV7Ir7C-32" value="&lt;p style=&quot;margin: 0px; font-style: normal; font-variant-caps: normal; font-stretch: normal; font-size: 13px; line-height: normal; font-family: &amp;quot;Hiragino Sans&amp;quot;; font-size-adjust: none; font-kerning: auto; font-variant-alternates: normal; font-variant-ligatures: normal; font-variant-numeric: normal; font-variant-east-asian: normal; font-variant-position: normal; font-feature-settings: normal; font-optical-sizing: auto; font-variation-settings: normal;&quot;&gt;&lt;b&gt;ょ&lt;/b&gt;&lt;/p&gt;" style="text;html=1;strokeColor=none;fillColor=none;align=center;verticalAlign=middle;whiteSpace=wrap;rounded=0;" vertex="1" parent="1">
          <mxGeometry x="330" y="150" width="30" height="30" as="geometry" />
        </mxCell>
        <mxCell id="rx5Ag137ocZ3iWV7Ir7C-33" value="&lt;p style=&quot;margin: 0px; font-style: normal; font-variant-caps: normal; font-stretch: normal; font-size: 13px; line-height: normal; font-family: &amp;quot;Hiragino Sans&amp;quot;; font-size-adjust: none; font-kerning: auto; font-variant-alternates: normal; font-variant-ligatures: normal; font-variant-numeric: normal; font-variant-east-asian: normal; font-variant-position: normal; font-feature-settings: normal; font-optical-sizing: auto; font-variation-settings: normal;&quot;&gt;&lt;b&gt;こ&lt;/b&gt;&lt;/p&gt;" style="text;html=1;strokeColor=none;fillColor=none;align=center;verticalAlign=middle;whiteSpace=wrap;rounded=0;" vertex="1" parent="1">
          <mxGeometry x="130" y="150" width="30" height="30" as="geometry" />
        </mxCell>
        <mxCell id="rx5Ag137ocZ3iWV7Ir7C-34" value="&lt;p style=&quot;margin: 0px; font-style: normal; font-variant-caps: normal; font-stretch: normal; font-size: 13px; line-height: normal; font-family: &amp;quot;Hiragino Sans&amp;quot;; font-size-adjust: none; font-kerning: auto; font-variant-alternates: normal; font-variant-ligatures: normal; font-variant-numeric: normal; font-variant-east-asian: normal; font-variant-position: normal; font-feature-settings: normal; font-optical-sizing: auto; font-variation-settings: normal;&quot;&gt;&lt;b&gt;さ&lt;/b&gt;&lt;/p&gt;" style="text;html=1;strokeColor=none;fillColor=none;align=center;verticalAlign=middle;whiteSpace=wrap;rounded=0;" vertex="1" parent="1">
          <mxGeometry x="230" y="350" width="30" height="30" as="geometry" />
        </mxCell>
        <mxCell id="rx5Ag137ocZ3iWV7Ir7C-35" value="&lt;p style=&quot;margin: 0px; font-style: normal; font-variant-caps: normal; font-stretch: normal; font-size: 13px; line-height: normal; font-family: &amp;quot;Hiragino Sans&amp;quot;; font-size-adjust: none; font-kerning: auto; font-variant-alternates: normal; font-variant-ligatures: normal; font-variant-numeric: normal; font-variant-east-asian: normal; font-variant-position: normal; font-feature-settings: normal; font-optical-sizing: auto; font-variation-settings: normal;&quot;&gt;&lt;b&gt;ぇ&lt;/b&gt;&lt;/p&gt;" style="text;html=1;strokeColor=none;fillColor=none;align=center;verticalAlign=middle;whiteSpace=wrap;rounded=0;" vertex="1" parent="1">
          <mxGeometry x="-70" y="370" width="30" height="30" as="geometry" />
        </mxCell>
        <mxCell id="rx5Ag137ocZ3iWV7Ir7C-36" value="&lt;p style=&quot;margin: 0px; font-style: normal; font-variant-caps: normal; font-stretch: normal; font-size: 13px; line-height: normal; font-family: &amp;quot;Hiragino Sans&amp;quot;; font-size-adjust: none; font-kerning: auto; font-variant-alternates: normal; font-variant-ligatures: normal; font-variant-numeric: normal; font-variant-east-asian: normal; font-variant-position: normal; font-feature-settings: normal; font-optical-sizing: auto; font-variation-settings: normal;&quot;&gt;&lt;b&gt;は&lt;/b&gt;&lt;/p&gt;" style="text;html=1;strokeColor=none;fillColor=none;align=center;verticalAlign=middle;whiteSpace=wrap;rounded=0;" vertex="1" parent="1">
          <mxGeometry x="230" y="150" width="30" height="30" as="geometry" />
        </mxCell>
        <mxCell id="rx5Ag137ocZ3iWV7Ir7C-37" value="&lt;p style=&quot;margin: 0px; font-style: normal; font-variant-caps: normal; font-stretch: normal; font-size: 13px; line-height: normal; font-family: &amp;quot;Hiragino Sans&amp;quot;; font-size-adjust: none; font-kerning: auto; font-variant-alternates: normal; font-variant-ligatures: normal; font-variant-numeric: normal; font-variant-east-asian: normal; font-variant-position: normal; font-feature-settings: normal; font-optical-sizing: auto; font-variation-settings: normal;&quot;&gt;&lt;b&gt;る&lt;/b&gt;&lt;/p&gt;" style="text;html=1;strokeColor=none;fillColor=none;align=center;verticalAlign=middle;whiteSpace=wrap;rounded=0;" vertex="1" parent="1">
          <mxGeometry x="30" y="150" width="30" height="30" as="geometry" />
        </mxCell>
        <mxCell id="rx5Ag137ocZ3iWV7Ir7C-41" value="&lt;p style=&quot;margin: 0px; font-style: normal; font-variant-caps: normal; font-stretch: normal; font-size: 13px; line-height: normal; font-family: &amp;quot;Hiragino Sans&amp;quot;; font-size-adjust: none; font-kerning: auto; font-variant-alternates: normal; font-variant-ligatures: normal; font-variant-numeric: normal; font-variant-east-asian: normal; font-variant-position: normal; font-feature-settings: normal; font-optical-sizing: auto; font-variation-settings: normal;&quot;&gt;&lt;b&gt;ぉ&lt;/b&gt;&lt;/p&gt;" style="text;html=1;strokeColor=none;fillColor=none;align=center;verticalAlign=middle;whiteSpace=wrap;rounded=0;" vertex="1" parent="1">
          <mxGeometry x="30" y="370" width="30" height="30" as="geometry" />
        </mxCell>
        <mxCell id="rx5Ag137ocZ3iWV7Ir7C-42" value="&lt;p style=&quot;margin: 0px; font-style: normal; font-variant-caps: normal; font-stretch: normal; font-size: 13px; line-height: normal; font-family: &amp;quot;Hiragino Sans&amp;quot;; font-size-adjust: none; font-kerning: auto; font-variant-alternates: normal; font-variant-ligatures: normal; font-variant-numeric: normal; font-variant-east-asian: normal; font-variant-position: normal; font-feature-settings: normal; font-optical-sizing: auto; font-variation-settings: normal;&quot;&gt;&lt;b&gt;せ&lt;/b&gt;&lt;/p&gt;" style="text;html=1;strokeColor=none;fillColor=none;align=center;verticalAlign=middle;whiteSpace=wrap;rounded=0;" vertex="1" parent="1">
          <mxGeometry x="130" y="370" width="30" height="30" as="geometry" />
        </mxCell>
        <mxCell id="rx5Ag137ocZ3iWV7Ir7C-43" value="&lt;p style=&quot;margin: 0px; font-style: normal; font-variant-caps: normal; font-stretch: normal; font-size: 13px; line-height: normal; font-family: &amp;quot;Hiragino Sans&amp;quot;; font-size-adjust: none; font-kerning: auto; font-variant-alternates: normal; font-variant-ligatures: normal; font-variant-numeric: normal; font-variant-east-asian: normal; font-variant-position: normal; font-feature-settings: normal; font-optical-sizing: auto; font-variation-settings: normal;&quot;&gt;&lt;b&gt;ゆ&lt;/b&gt;&lt;/p&gt;" style="text;html=1;strokeColor=none;fillColor=none;align=center;verticalAlign=middle;whiteSpace=wrap;rounded=0;" vertex="1" parent="1">
          <mxGeometry x="230" y="370" width="30" height="30" as="geometry" />
        </mxCell>
        <mxCell id="rx5Ag137ocZ3iWV7Ir7C-44" value="&lt;p style=&quot;margin: 0px; font-style: normal; font-variant-caps: normal; font-stretch: normal; font-size: 13px; line-height: normal; font-family: &amp;quot;Hiragino Sans&amp;quot;; font-size-adjust: none; font-kerning: auto; font-variant-alternates: normal; font-variant-ligatures: normal; font-variant-numeric: normal; font-variant-east-asian: normal; font-variant-position: normal; font-feature-settings: normal; font-optical-sizing: auto; font-variation-settings: normal;&quot;&gt;&lt;b&gt;へ&lt;/b&gt;&lt;/p&gt;" style="text;html=1;strokeColor=none;fillColor=none;align=center;verticalAlign=middle;whiteSpace=wrap;rounded=0;" vertex="1" parent="1">
          <mxGeometry x="330" y="370" width="30" height="30" as="geometry" />
        </mxCell>
        <mxCell id="rx5Ag137ocZ3iWV7Ir7C-46" value="&lt;p style=&quot;margin: 0px; font-style: normal; font-variant-caps: normal; font-stretch: normal; font-size: 13px; line-height: normal; font-family: &amp;quot;Hiragino Sans&amp;quot;; font-size-adjust: none; font-kerning: auto; font-variant-alternates: normal; font-variant-ligatures: normal; font-variant-numeric: normal; font-variant-east-asian: normal; font-variant-position: normal; font-feature-settings: normal; font-optical-sizing: auto; font-variation-settings: normal;&quot;&gt;&lt;b&gt;ら&lt;/b&gt;&lt;/p&gt;" style="text;html=1;strokeColor=none;fillColor=none;align=center;verticalAlign=middle;whiteSpace=wrap;rounded=0;" vertex="1" parent="1">
          <mxGeometry x="-70" y="150" width="30" height="30" as="geometry" />
        </mxCell>
        <mxCell id="rx5Ag137ocZ3iWV7Ir7C-47" value="&lt;p style=&quot;margin: 0px; font-style: normal; font-variant-caps: normal; font-stretch: normal; font-size: 13px; line-height: normal; font-family: &amp;quot;Hiragino Sans&amp;quot;; font-size-adjust: none; font-kerning: auto; font-variant-alternates: normal; font-variant-ligatures: normal; font-variant-numeric: normal; font-variant-east-asian: normal; font-variant-position: normal; font-feature-settings: normal; font-optical-sizing: auto; font-variation-settings: normal;&quot;&gt;&lt;b&gt;ひ&lt;/b&gt;&lt;/p&gt;" style="text;html=1;strokeColor=none;fillColor=none;align=center;verticalAlign=middle;whiteSpace=wrap;rounded=0;" vertex="1" parent="1">
          <mxGeometry x="-70" y="170" width="30" height="30" as="geometry" />
        </mxCell>
        <mxCell id="rx5Ag137ocZ3iWV7Ir7C-48" value="&lt;p style=&quot;margin: 0px; font-style: normal; font-variant-caps: normal; font-stretch: normal; font-size: 13px; line-height: normal; font-family: &amp;quot;Hiragino Sans&amp;quot;; font-size-adjust: none; font-kerning: auto; font-variant-alternates: normal; font-variant-ligatures: normal; font-variant-numeric: normal; font-variant-east-asian: normal; font-variant-position: normal; font-feature-settings: normal; font-optical-sizing: auto; font-variation-settings: normal;&quot;&gt;&lt;b&gt;そ&lt;/b&gt;&lt;/p&gt;" style="text;html=1;strokeColor=none;fillColor=none;align=center;verticalAlign=middle;whiteSpace=wrap;rounded=0;" vertex="1" parent="1">
          <mxGeometry x="30" y="170" width="30" height="30" as="geometry" />
        </mxCell>
        <mxCell id="rx5Ag137ocZ3iWV7Ir7C-49" value="&lt;p style=&quot;margin: 0px; font-style: normal; font-variant-caps: normal; font-stretch: normal; font-size: 13px; line-height: normal; font-family: &amp;quot;Hiragino Sans&amp;quot;; font-size-adjust: none; font-kerning: auto; font-variant-alternates: normal; font-variant-ligatures: normal; font-variant-numeric: normal; font-variant-east-asian: normal; font-variant-position: normal; font-feature-settings: normal; font-optical-sizing: auto; font-variation-settings: normal;&quot;&gt;&lt;b&gt;・&lt;/b&gt;&lt;/p&gt;" style="text;html=1;strokeColor=none;fillColor=none;align=center;verticalAlign=middle;whiteSpace=wrap;rounded=0;" vertex="1" parent="1">
          <mxGeometry x="130" y="170" width="30" height="30" as="geometry" />
        </mxCell>
        <mxCell id="rx5Ag137ocZ3iWV7Ir7C-50" value="&lt;p style=&quot;margin: 0px; font-style: normal; font-variant-caps: normal; font-stretch: normal; font-size: 13px; line-height: normal; font-family: &amp;quot;Hiragino Sans&amp;quot;; font-size-adjust: none; font-kerning: auto; font-variant-alternates: normal; font-variant-ligatures: normal; font-variant-numeric: normal; font-variant-east-asian: normal; font-variant-position: normal; font-feature-settings: normal; font-optical-sizing: auto; font-variation-settings: normal;&quot;&gt;&lt;b&gt;ほ&lt;/b&gt;&lt;/p&gt;" style="text;html=1;strokeColor=none;fillColor=none;align=center;verticalAlign=middle;whiteSpace=wrap;rounded=0;" vertex="1" parent="1">
          <mxGeometry x="330" y="170" width="30" height="30" as="geometry" />
        </mxCell>
        <mxCell id="rx5Ag137ocZ3iWV7Ir7C-51" value="&lt;p style=&quot;margin: 0px; font-style: normal; font-variant-caps: normal; font-stretch: normal; font-size: 13px; line-height: normal; font-family: &amp;quot;Hiragino Sans&amp;quot;; font-size-adjust: none; font-kerning: auto; font-variant-alternates: normal; font-variant-ligatures: normal; font-variant-numeric: normal; font-variant-east-asian: normal; font-variant-position: normal; font-feature-settings: normal; font-optical-sizing: auto; font-variation-settings: normal;&quot;&gt;&lt;b&gt;ぬ&lt;/b&gt;&lt;/p&gt;" style="text;html=1;strokeColor=none;fillColor=none;align=center;verticalAlign=middle;whiteSpace=wrap;rounded=0;" vertex="1" parent="1">
          <mxGeometry x="-70" y="270" width="30" height="30" as="geometry" />
        </mxCell>
        <mxCell id="rx5Ag137ocZ3iWV7Ir7C-52" value="&lt;p style=&quot;margin: 0px; font-style: normal; font-variant-caps: normal; font-stretch: normal; font-size: 13px; line-height: normal; font-family: &amp;quot;Hiragino Sans&amp;quot;; font-size-adjust: none; font-kerning: auto; font-variant-alternates: normal; font-variant-ligatures: normal; font-variant-numeric: normal; font-variant-east-asian: normal; font-variant-position: normal; font-feature-settings: normal; font-optical-sizing: auto; font-variation-settings: normal;&quot;&gt;&lt;b&gt;ね&lt;/b&gt;&lt;/p&gt;" style="text;html=1;strokeColor=none;fillColor=none;align=center;verticalAlign=middle;whiteSpace=wrap;rounded=0;" vertex="1" parent="1">
          <mxGeometry x="30" y="270" width="30" height="30" as="geometry" />
        </mxCell>
        <mxCell id="rx5Ag137ocZ3iWV7Ir7C-53" value="&lt;p style=&quot;margin: 0px; font-style: normal; font-variant-caps: normal; font-stretch: normal; font-size: 13px; line-height: normal; font-family: &amp;quot;Hiragino Sans&amp;quot;; font-size-adjust: none; font-kerning: auto; font-variant-alternates: normal; font-variant-ligatures: normal; font-variant-numeric: normal; font-variant-east-asian: normal; font-variant-position: normal; font-feature-settings: normal; font-optical-sizing: auto; font-variation-settings: normal;&quot;&gt;&lt;b&gt;ゅ&lt;/b&gt;&lt;/p&gt;" style="text;html=1;strokeColor=none;fillColor=none;align=center;verticalAlign=middle;whiteSpace=wrap;rounded=0;" vertex="1" parent="1">
          <mxGeometry x="130" y="270" width="30" height="30" as="geometry" />
        </mxCell>
        <mxCell id="rx5Ag137ocZ3iWV7Ir7C-54" value="&lt;p style=&quot;margin: 0px; font-style: normal; font-variant-caps: normal; font-stretch: normal; font-size: 13px; line-height: normal; font-family: &amp;quot;Hiragino Sans&amp;quot;; font-size-adjust: none; font-kerning: auto; font-variant-alternates: normal; font-variant-ligatures: normal; font-variant-numeric: normal; font-variant-east-asian: normal; font-variant-position: normal; font-feature-settings: normal; font-optical-sizing: auto; font-variation-settings: normal;&quot;&gt;&lt;b&gt;よ&lt;/b&gt;&lt;/p&gt;" style="text;html=1;strokeColor=none;fillColor=none;align=center;verticalAlign=middle;whiteSpace=wrap;rounded=0;" vertex="1" parent="1">
          <mxGeometry x="230" y="270" width="30" height="30" as="geometry" />
        </mxCell>
        <mxCell id="rx5Ag137ocZ3iWV7Ir7C-55" value="&lt;p style=&quot;margin: 0px; font-style: normal; font-variant-caps: normal; font-stretch: normal; font-size: 13px; line-height: normal; font-family: &amp;quot;Hiragino Sans&amp;quot;; font-size-adjust: none; font-kerning: auto; font-variant-alternates: normal; font-variant-ligatures: normal; font-variant-numeric: normal; font-variant-east-asian: normal; font-variant-position: normal; font-feature-settings: normal; font-optical-sizing: auto; font-variation-settings: normal;&quot;&gt;&lt;b&gt;ふ&lt;/b&gt;&lt;/p&gt;" style="text;html=1;strokeColor=none;fillColor=none;align=center;verticalAlign=middle;whiteSpace=wrap;rounded=0;" vertex="1" parent="1">
          <mxGeometry x="330" y="270" width="30" height="30" as="geometry" />
        </mxCell>
        <mxCell id="rx5Ag137ocZ3iWV7Ir7C-57" value="&lt;p style=&quot;margin: 0px; font-style: normal; font-variant-caps: normal; font-stretch: normal; font-size: 13px; line-height: normal; font-family: &amp;quot;Hiragino Sans&amp;quot;; font-size-adjust: none; font-kerning: auto; font-variant-alternates: normal; font-variant-ligatures: normal; font-variant-numeric: normal; font-variant-east-asian: normal; font-variant-position: normal; font-feature-settings: normal; font-optical-sizing: auto; font-variation-settings: normal;&quot;&gt;&lt;b&gt;ぅ&lt;/b&gt;&lt;/p&gt;" style="text;html=1;strokeColor=none;fillColor=none;align=center;verticalAlign=middle;whiteSpace=wrap;rounded=0;" vertex="1" parent="1">
          <mxGeometry x="950" y="370" width="30" height="30" as="geometry" />
        </mxCell>
        <mxCell id="rx5Ag137ocZ3iWV7Ir7C-58" value="&lt;p style=&quot;margin: 0px; font-style: normal; font-variant-caps: normal; font-stretch: normal; font-size: 13px; line-height: normal; font-family: &amp;quot;Hiragino Sans&amp;quot;; font-size-adjust: none; font-kerning: auto; font-variant-alternates: normal; font-variant-ligatures: normal; font-variant-numeric: normal; font-variant-east-asian: normal; font-variant-position: normal; font-feature-settings: normal; font-optical-sizing: auto; font-variation-settings: normal;&quot;&gt;&lt;b&gt;お&lt;/b&gt;&lt;/p&gt;" style="text;html=1;strokeColor=none;fillColor=none;align=center;verticalAlign=middle;whiteSpace=wrap;rounded=0;" vertex="1" parent="1">
          <mxGeometry x="550" y="270" width="30" height="30" as="geometry" />
        </mxCell>
        <mxCell id="rx5Ag137ocZ3iWV7Ir7C-59" value="&lt;p style=&quot;margin: 0px; font-style: normal; font-variant-caps: normal; font-stretch: normal; font-size: 13px; line-height: normal; font-family: &amp;quot;Hiragino Sans&amp;quot;; font-size-adjust: none; font-kerning: auto; font-variant-alternates: normal; font-variant-ligatures: normal; font-variant-numeric: normal; font-variant-east-asian: normal; font-variant-position: normal; font-feature-settings: normal; font-optical-sizing: auto; font-variation-settings: normal;&quot;&gt;&lt;b&gt;ち&lt;/b&gt;&lt;/p&gt;" style="text;html=1;strokeColor=none;fillColor=none;align=center;verticalAlign=middle;whiteSpace=wrap;rounded=0;" vertex="1" parent="1">
          <mxGeometry x="650" y="270" width="30" height="30" as="geometry" />
        </mxCell>
        <mxCell id="rx5Ag137ocZ3iWV7Ir7C-60" value="&lt;p style=&quot;margin: 0px; font-style: normal; font-variant-caps: normal; font-stretch: normal; font-size: 13px; line-height: normal; font-family: &amp;quot;Hiragino Sans&amp;quot;; font-size-adjust: none; font-kerning: auto; font-variant-alternates: normal; font-variant-ligatures: normal; font-variant-numeric: normal; font-variant-east-asian: normal; font-variant-position: normal; font-feature-settings: normal; font-optical-sizing: auto; font-variation-settings: normal;&quot;&gt;&lt;b&gt;ー&lt;/b&gt;&lt;/p&gt;" style="text;html=1;strokeColor=none;fillColor=none;align=center;verticalAlign=middle;whiteSpace=wrap;rounded=0;" vertex="1" parent="1">
          <mxGeometry x="750" y="270" width="30" height="30" as="geometry" />
        </mxCell>
        <mxCell id="rx5Ag137ocZ3iWV7Ir7C-61" value="&lt;p style=&quot;margin: 0px; font-style: normal; font-variant-caps: normal; font-stretch: normal; font-size: 13px; line-height: normal; font-family: &amp;quot;Hiragino Sans&amp;quot;; font-size-adjust: none; font-kerning: auto; font-variant-alternates: normal; font-variant-ligatures: normal; font-variant-numeric: normal; font-variant-east-asian: normal; font-variant-position: normal; font-feature-settings: normal; font-optical-sizing: auto; font-variation-settings: normal;&quot;&gt;&lt;b&gt;み&lt;/b&gt;&lt;/p&gt;" style="text;html=1;strokeColor=none;fillColor=none;align=center;verticalAlign=middle;whiteSpace=wrap;rounded=0;" vertex="1" parent="1">
          <mxGeometry x="850" y="270" width="30" height="30" as="geometry" />
        </mxCell>
        <mxCell id="rx5Ag137ocZ3iWV7Ir7C-62" value="&lt;p style=&quot;margin: 0px; font-style: normal; font-variant-caps: normal; font-stretch: normal; font-size: 13px; line-height: normal; font-family: &amp;quot;Hiragino Sans&amp;quot;; font-size-adjust: none; font-kerning: auto; font-variant-alternates: normal; font-variant-ligatures: normal; font-variant-numeric: normal; font-variant-east-asian: normal; font-variant-position: normal; font-feature-settings: normal; font-optical-sizing: auto; font-variation-settings: normal;&quot;&gt;&lt;b&gt;や&lt;/b&gt;&lt;/p&gt;" style="text;html=1;strokeColor=none;fillColor=none;align=center;verticalAlign=middle;whiteSpace=wrap;rounded=0;" vertex="1" parent="1">
          <mxGeometry x="950" y="270" width="30" height="30" as="geometry" />
        </mxCell>
        <mxCell id="rx5Ag137ocZ3iWV7Ir7C-63" value="&lt;p style=&quot;margin: 0px; font-style: normal; font-variant-caps: normal; font-stretch: normal; font-size: 13px; line-height: normal; font-family: &amp;quot;Hiragino Sans&amp;quot;; font-size-adjust: none; font-kerning: auto; font-variant-alternates: normal; font-variant-ligatures: normal; font-variant-numeric: normal; font-variant-east-asian: normal; font-variant-position: normal; font-feature-settings: normal; font-optical-sizing: auto; font-variation-settings: normal;&quot;&gt;&lt;b&gt;ろ&lt;/b&gt;&lt;/p&gt;" style="text;html=1;strokeColor=none;fillColor=none;align=center;verticalAlign=middle;whiteSpace=wrap;rounded=0;" vertex="1" parent="1">
          <mxGeometry x="950" y="170" width="30" height="30" as="geometry" />
        </mxCell>
        <mxCell id="rx5Ag137ocZ3iWV7Ir7C-64" value="&lt;p style=&quot;margin: 0px; font-style: normal; font-variant-caps: normal; font-stretch: normal; font-size: 13px; line-height: normal; font-family: &amp;quot;Hiragino Sans&amp;quot;; font-size-adjust: none; font-kerning: auto; font-variant-alternates: normal; font-variant-ligatures: normal; font-variant-numeric: normal; font-variant-east-asian: normal; font-variant-position: normal; font-feature-settings: normal; font-optical-sizing: auto; font-variation-settings: normal;&quot;&gt;&lt;b&gt;む&lt;/b&gt;&lt;/p&gt;" style="text;html=1;strokeColor=none;fillColor=none;align=center;verticalAlign=middle;whiteSpace=wrap;rounded=0;" vertex="1" parent="1">
          <mxGeometry x="850" y="170" width="30" height="30" as="geometry" />
        </mxCell>
        <mxCell id="rx5Ag137ocZ3iWV7Ir7C-65" value="&lt;p style=&quot;margin: 0px; font-style: normal; font-variant-caps: normal; font-stretch: normal; font-size: 13px; line-height: normal; font-family: &amp;quot;Hiragino Sans&amp;quot;; font-size-adjust: none; font-kerning: auto; font-variant-alternates: normal; font-variant-ligatures: normal; font-variant-numeric: normal; font-variant-east-asian: normal; font-variant-position: normal; font-feature-settings: normal; font-optical-sizing: auto; font-variation-settings: normal;&quot;&gt;&lt;b&gt;め&lt;/b&gt;&lt;/p&gt;" style="text;html=1;strokeColor=none;fillColor=none;align=center;verticalAlign=middle;whiteSpace=wrap;rounded=0;" vertex="1" parent="1">
          <mxGeometry x="750" y="170" width="30" height="30" as="geometry" />
        </mxCell>
        <mxCell id="rx5Ag137ocZ3iWV7Ir7C-66" value="&lt;p style=&quot;margin: 0px; font-style: normal; font-variant-caps: normal; font-stretch: normal; font-size: 13px; line-height: normal; font-family: &amp;quot;Hiragino Sans&amp;quot;; font-size-adjust: none; font-kerning: auto; font-variant-alternates: normal; font-variant-ligatures: normal; font-variant-numeric: normal; font-variant-east-asian: normal; font-variant-position: normal; font-feature-settings: normal; font-optical-sizing: auto; font-variation-settings: normal;&quot;&gt;&lt;b&gt;け&lt;/b&gt;&lt;/p&gt;" style="text;html=1;strokeColor=none;fillColor=none;align=center;verticalAlign=middle;whiteSpace=wrap;rounded=0;" vertex="1" parent="1">
          <mxGeometry x="650" y="170" width="30" height="30" as="geometry" />
        </mxCell>
        <mxCell id="rx5Ag137ocZ3iWV7Ir7C-67" value="&lt;p style=&quot;margin: 0px; font-style: normal; font-variant-caps: normal; font-stretch: normal; font-size: 13px; line-height: normal; font-family: &amp;quot;Hiragino Sans&amp;quot;; font-size-adjust: none; font-kerning: auto; font-variant-alternates: normal; font-variant-ligatures: normal; font-variant-numeric: normal; font-variant-east-asian: normal; font-variant-position: normal; font-feature-settings: normal; font-optical-sizing: auto; font-variation-settings: normal;&quot;&gt;&lt;b&gt;え&lt;/b&gt;&lt;/p&gt;" style="text;html=1;strokeColor=none;fillColor=none;align=center;verticalAlign=middle;whiteSpace=wrap;rounded=0;" vertex="1" parent="1">
          <mxGeometry x="550" y="170" width="30" height="30" as="geometry" />
        </mxCell>
        <mxCell id="rx5Ag137ocZ3iWV7Ir7C-70" value="&lt;p style=&quot;margin: 0px; font-style: normal; font-variant-caps: normal; font-stretch: normal; font-size: 13px; line-height: normal; font-family: &amp;quot;Hiragino Sans&amp;quot;; font-size-adjust: none; font-kerning: auto; font-variant-alternates: normal; font-variant-ligatures: normal; font-variant-numeric: normal; font-variant-east-asian: normal; font-variant-position: normal; font-feature-settings: normal; font-optical-sizing: auto; font-variation-settings: normal;&quot;&gt;&lt;b&gt;づ&lt;/b&gt;&lt;/p&gt;" style="text;html=1;strokeColor=none;fillColor=none;align=center;verticalAlign=middle;whiteSpace=wrap;rounded=0;" vertex="1" parent="1">
          <mxGeometry x="650" y="330" width="30" height="30" as="geometry" />
        </mxCell>
        <mxCell id="rx5Ag137ocZ3iWV7Ir7C-71" value="&lt;p style=&quot;margin: 0px; font-style: normal; font-variant-caps: normal; font-stretch: normal; font-size: 13px; line-height: normal; font-family: &amp;quot;Hiragino Sans&amp;quot;; font-size-adjust: none; font-kerning: auto; font-variant-alternates: normal; font-variant-ligatures: normal; font-variant-numeric: normal; font-variant-east-asian: normal; font-variant-position: normal; font-feature-settings: normal; font-optical-sizing: auto; font-variation-settings: normal;&quot;&gt;&lt;b&gt;ず&lt;/b&gt;&lt;/p&gt;" style="text;html=1;strokeColor=none;fillColor=none;align=center;verticalAlign=middle;whiteSpace=wrap;rounded=0;" vertex="1" parent="1">
          <mxGeometry x="550" y="330" width="30" height="30" as="geometry" />
        </mxCell>
        <mxCell id="rx5Ag137ocZ3iWV7Ir7C-72" value="&lt;p style=&quot;margin: 0px; font-style: normal; font-variant-caps: normal; font-stretch: normal; font-size: 13px; line-height: normal; font-family: &amp;quot;Hiragino Sans&amp;quot;; font-size-adjust: none; font-kerning: auto; font-variant-alternates: normal; font-variant-ligatures: normal; font-variant-numeric: normal; font-variant-east-asian: normal; font-variant-position: normal; font-feature-settings: normal; font-optical-sizing: auto; font-variation-settings: normal;&quot;&gt;&lt;b&gt;わ&lt;/b&gt;&lt;/p&gt;" style="text;html=1;strokeColor=none;fillColor=none;align=center;verticalAlign=middle;whiteSpace=wrap;rounded=0;" vertex="1" parent="1">
          <mxGeometry x="550" y="370" width="30" height="30" as="geometry" />
        </mxCell>
        <mxCell id="rx5Ag137ocZ3iWV7Ir7C-73" value="&lt;p style=&quot;margin: 0px; font-style: normal; font-variant-caps: normal; font-stretch: normal; font-size: 13px; line-height: normal; font-family: &amp;quot;Hiragino Sans&amp;quot;; font-size-adjust: none; font-kerning: auto; font-variant-alternates: normal; font-variant-ligatures: normal; font-variant-numeric: normal; font-variant-east-asian: normal; font-variant-position: normal; font-feature-settings: normal; font-optical-sizing: auto; font-variation-settings: normal;&quot;&gt;&lt;b&gt;ぃ&lt;/b&gt;&lt;/p&gt;" style="text;html=1;strokeColor=none;fillColor=none;align=center;verticalAlign=middle;whiteSpace=wrap;rounded=0;" vertex="1" parent="1">
          <mxGeometry x="650" y="370" width="30" height="30" as="geometry" />
        </mxCell>
        <mxCell id="rx5Ag137ocZ3iWV7Ir7C-74" value="&lt;p style=&quot;margin: 0px; font-style: normal; font-variant-caps: normal; font-stretch: normal; font-size: 13px; line-height: normal; font-family: &amp;quot;Hiragino Sans&amp;quot;; font-size-adjust: none; font-kerning: auto; font-variant-alternates: normal; font-variant-ligatures: normal; font-variant-numeric: normal; font-variant-east-asian: normal; font-variant-position: normal; font-feature-settings: normal; font-optical-sizing: auto; font-variation-settings: normal;&quot;&gt;&lt;b&gt;ぁ&lt;/b&gt;&lt;/p&gt;" style="text;html=1;strokeColor=none;fillColor=none;align=center;verticalAlign=middle;whiteSpace=wrap;rounded=0;" vertex="1" parent="1">
          <mxGeometry x="750" y="370" width="30" height="30" as="geometry" />
        </mxCell>
        <mxCell id="rx5Ag137ocZ3iWV7Ir7C-75" value="&lt;p style=&quot;margin: 0px; font-style: normal; font-variant-caps: normal; font-stretch: normal; font-size: 13px; line-height: normal; font-family: &amp;quot;Hiragino Sans&amp;quot;; font-size-adjust: none; font-kerning: auto; font-variant-alternates: normal; font-variant-ligatures: normal; font-variant-numeric: normal; font-variant-east-asian: normal; font-variant-position: normal; font-feature-settings: normal; font-optical-sizing: auto; font-variation-settings: normal;&quot;&gt;&lt;b&gt;じ&lt;/b&gt;&lt;/p&gt;" style="text;html=1;strokeColor=none;fillColor=none;align=center;verticalAlign=middle;whiteSpace=wrap;rounded=0;" vertex="1" parent="1">
          <mxGeometry x="850" y="230" width="30" height="30" as="geometry" />
        </mxCell>
        <mxCell id="rx5Ag137ocZ3iWV7Ir7C-76" value="&lt;p style=&quot;margin: 0px; font-style: normal; font-variant-caps: normal; font-stretch: normal; font-size: 13px; line-height: normal; font-family: &amp;quot;Hiragino Sans&amp;quot;; font-size-adjust: none; font-kerning: auto; font-variant-alternates: normal; font-variant-ligatures: normal; font-variant-numeric: normal; font-variant-east-asian: normal; font-variant-position: normal; font-feature-settings: normal; font-optical-sizing: auto; font-variation-settings: normal;&quot;&gt;&lt;b&gt;ゔ&lt;/b&gt;&lt;/p&gt;" style="text;html=1;strokeColor=none;fillColor=none;align=center;verticalAlign=middle;whiteSpace=wrap;rounded=0;" vertex="1" parent="1">
          <mxGeometry x="750" y="230" width="30" height="30" as="geometry" />
        </mxCell>
        <mxCell id="rx5Ag137ocZ3iWV7Ir7C-77" value="&lt;p style=&quot;margin: 0px; font-style: normal; font-variant-caps: normal; font-stretch: normal; font-size: 13px; line-height: normal; font-family: &amp;quot;Hiragino Sans&amp;quot;; font-size-adjust: none; font-kerning: auto; font-variant-alternates: normal; font-variant-ligatures: normal; font-variant-numeric: normal; font-variant-east-asian: normal; font-variant-position: normal; font-feature-settings: normal; font-optical-sizing: auto; font-variation-settings: normal;&quot;&gt;&lt;b&gt;ぢ&lt;/b&gt;&lt;/p&gt;" style="text;html=1;strokeColor=none;fillColor=none;align=center;verticalAlign=middle;whiteSpace=wrap;rounded=0;" vertex="1" parent="1">
          <mxGeometry x="650" y="230" width="30" height="30" as="geometry" />
        </mxCell>
        <mxCell id="rx5Ag137ocZ3iWV7Ir7C-78" value="&lt;p style=&quot;margin: 0px; font-style: normal; font-variant-caps: normal; font-stretch: normal; font-size: 13px; line-height: normal; font-family: &amp;quot;Hiragino Sans&amp;quot;; font-size-adjust: none; font-kerning: auto; font-variant-alternates: normal; font-variant-ligatures: normal; font-variant-numeric: normal; font-variant-east-asian: normal; font-variant-position: normal; font-feature-settings: normal; font-optical-sizing: auto; font-variation-settings: normal;&quot;&gt;&lt;b&gt;ぐ&lt;/b&gt;&lt;/p&gt;" style="text;html=1;strokeColor=none;fillColor=none;align=center;verticalAlign=middle;whiteSpace=wrap;rounded=0;" vertex="1" parent="1">
          <mxGeometry x="750" y="130" width="30" height="30" as="geometry" />
        </mxCell>
        <mxCell id="rx5Ag137ocZ3iWV7Ir7C-79" value="&lt;p style=&quot;margin: 0px; font-style: normal; font-variant-caps: normal; font-stretch: normal; font-size: 13px; line-height: normal; font-family: &amp;quot;Hiragino Sans&amp;quot;; font-size-adjust: none; font-kerning: auto; font-variant-alternates: normal; font-variant-ligatures: normal; font-variant-numeric: normal; font-variant-east-asian: normal; font-variant-position: normal; font-feature-settings: normal; font-optical-sizing: auto; font-variation-settings: normal;&quot;&gt;&lt;b&gt;げ&lt;/b&gt;&lt;/p&gt;" style="text;html=1;strokeColor=none;fillColor=none;align=center;verticalAlign=middle;whiteSpace=wrap;rounded=0;" vertex="1" parent="1">
          <mxGeometry x="650" y="130" width="30" height="30" as="geometry" />
        </mxCell>
        <mxCell id="rx5Ag137ocZ3iWV7Ir7C-80" value="&lt;p style=&quot;margin: 0px; font-style: normal; font-variant-caps: normal; font-stretch: normal; font-size: 13px; line-height: normal; font-family: &amp;quot;Hiragino Sans&amp;quot;; font-size-adjust: none; font-kerning: auto; font-variant-alternates: normal; font-variant-ligatures: normal; font-variant-numeric: normal; font-variant-east-asian: normal; font-variant-position: normal; font-feature-settings: normal; font-optical-sizing: auto; font-variation-settings: normal;&quot;&gt;&lt;b&gt;ぎ&lt;/b&gt;&lt;/p&gt;" style="text;html=1;strokeColor=none;fillColor=none;align=center;verticalAlign=middle;whiteSpace=wrap;rounded=0;" vertex="1" parent="1">
          <mxGeometry x="550" y="130" width="30" height="30" as="geometry" />
        </mxCell>
        <mxCell id="rx5Ag137ocZ3iWV7Ir7C-81" value="&lt;p style=&quot;margin: 0px; font-style: normal; font-variant-caps: normal; font-stretch: normal; font-size: 13px; line-height: normal; font-family: &amp;quot;Hiragino Sans&amp;quot;; font-size-adjust: none; font-kerning: auto; font-variant-alternates: normal; font-variant-ligatures: normal; font-variant-numeric: normal; font-variant-east-asian: normal; font-variant-position: normal; font-feature-settings: normal; font-optical-sizing: auto; font-variation-settings: normal;&quot;&gt;&lt;b&gt;べ&lt;/b&gt;&lt;/p&gt;" style="text;html=1;strokeColor=none;fillColor=none;align=center;verticalAlign=middle;whiteSpace=wrap;rounded=0;" vertex="1" parent="1">
          <mxGeometry x="330" y="330" width="30" height="30" as="geometry" />
        </mxCell>
        <mxCell id="rx5Ag137ocZ3iWV7Ir7C-82" value="&lt;p style=&quot;margin: 0px; font-style: normal; font-variant-caps: normal; font-stretch: normal; font-size: 13px; line-height: normal; font-family: &amp;quot;Hiragino Sans&amp;quot;; font-size-adjust: none; font-kerning: auto; font-variant-alternates: normal; font-variant-ligatures: normal; font-variant-numeric: normal; font-variant-east-asian: normal; font-variant-position: normal; font-feature-settings: normal; font-optical-sizing: auto; font-variation-settings: normal;&quot;&gt;&lt;b&gt;ぜ&lt;/b&gt;&lt;/p&gt;" style="text;html=1;strokeColor=none;fillColor=none;align=center;verticalAlign=middle;whiteSpace=wrap;rounded=0;" vertex="1" parent="1">
          <mxGeometry x="130" y="330" width="30" height="30" as="geometry" />
        </mxCell>
        <mxCell id="rx5Ag137ocZ3iWV7Ir7C-83" value="&lt;p style=&quot;margin: 0px; font-style: normal; font-variant-caps: normal; font-stretch: normal; font-size: 13px; line-height: normal; font-family: &amp;quot;Hiragino Sans&amp;quot;; font-size-adjust: none; font-kerning: auto; font-variant-alternates: normal; font-variant-ligatures: normal; font-variant-numeric: normal; font-variant-east-asian: normal; font-variant-position: normal; font-feature-settings: normal; font-optical-sizing: auto; font-variation-settings: normal;&quot;&gt;&lt;b&gt;だ&lt;/b&gt;&lt;/p&gt;" style="text;html=1;strokeColor=none;fillColor=none;align=center;verticalAlign=middle;whiteSpace=wrap;rounded=0;" vertex="1" parent="1">
          <mxGeometry x="-70" y="230" width="30" height="30" as="geometry" />
        </mxCell>
        <mxCell id="rx5Ag137ocZ3iWV7Ir7C-84" value="&lt;p style=&quot;margin: 0px; font-style: normal; font-variant-caps: normal; font-stretch: normal; font-size: 13px; line-height: normal; font-family: &amp;quot;Hiragino Sans&amp;quot;; font-size-adjust: none; font-kerning: auto; font-variant-alternates: normal; font-variant-ligatures: normal; font-variant-numeric: normal; font-variant-east-asian: normal; font-variant-position: normal; font-feature-settings: normal; font-optical-sizing: auto; font-variation-settings: normal;&quot;&gt;&lt;b&gt;ど&lt;/b&gt;&lt;/p&gt;" style="text;html=1;strokeColor=none;fillColor=none;align=center;verticalAlign=middle;whiteSpace=wrap;rounded=0;" vertex="1" parent="1">
          <mxGeometry x="30" y="230" width="30" height="30" as="geometry" />
        </mxCell>
        <mxCell id="rx5Ag137ocZ3iWV7Ir7C-85" value="&lt;p style=&quot;margin: 0px; font-style: normal; font-variant-caps: normal; font-stretch: normal; font-size: 13px; line-height: normal; font-family: &amp;quot;Hiragino Sans&amp;quot;; font-size-adjust: none; font-kerning: auto; font-variant-alternates: normal; font-variant-ligatures: normal; font-variant-numeric: normal; font-variant-east-asian: normal; font-variant-position: normal; font-feature-settings: normal; font-optical-sizing: auto; font-variation-settings: normal;&quot;&gt;&lt;b&gt;が&lt;/b&gt;&lt;/p&gt;" style="text;html=1;strokeColor=none;fillColor=none;align=center;verticalAlign=middle;whiteSpace=wrap;rounded=0;" vertex="1" parent="1">
          <mxGeometry x="130" y="230" width="30" height="30" as="geometry" />
        </mxCell>
        <mxCell id="rx5Ag137ocZ3iWV7Ir7C-86" value="&lt;p style=&quot;margin: 0px; font-style: normal; font-variant-caps: normal; font-stretch: normal; font-size: 13px; line-height: normal; font-family: &amp;quot;Hiragino Sans&amp;quot;; font-size-adjust: none; font-kerning: auto; font-variant-alternates: normal; font-variant-ligatures: normal; font-variant-numeric: normal; font-variant-east-asian: normal; font-variant-position: normal; font-feature-settings: normal; font-optical-sizing: auto; font-variation-settings: normal;&quot;&gt;&lt;b&gt;で&lt;/b&gt;&lt;/p&gt;" style="text;html=1;strokeColor=none;fillColor=none;align=center;verticalAlign=middle;whiteSpace=wrap;rounded=0;" vertex="1" parent="1">
          <mxGeometry x="230" y="230" width="30" height="30" as="geometry" />
        </mxCell>
        <mxCell id="rx5Ag137ocZ3iWV7Ir7C-87" value="&lt;p style=&quot;margin: 0px; font-style: normal; font-variant-caps: normal; font-stretch: normal; font-size: 13px; line-height: normal; font-family: &amp;quot;Hiragino Sans&amp;quot;; font-size-adjust: none; font-kerning: auto; font-variant-alternates: normal; font-variant-ligatures: normal; font-variant-numeric: normal; font-variant-east-asian: normal; font-variant-position: normal; font-feature-settings: normal; font-optical-sizing: auto; font-variation-settings: normal;&quot;&gt;&lt;b&gt;ぶ&lt;/b&gt;&lt;/p&gt;" style="text;html=1;strokeColor=none;fillColor=none;align=center;verticalAlign=middle;whiteSpace=wrap;rounded=0;" vertex="1" parent="1">
          <mxGeometry x="330" y="230" width="30" height="30" as="geometry" />
        </mxCell>
        <mxCell id="rx5Ag137ocZ3iWV7Ir7C-88" value="&lt;p style=&quot;margin: 0px; font-style: normal; font-variant-caps: normal; font-stretch: normal; font-size: 13px; line-height: normal; font-family: &amp;quot;Hiragino Sans&amp;quot;; font-size-adjust: none; font-kerning: auto; font-variant-alternates: normal; font-variant-ligatures: normal; font-variant-numeric: normal; font-variant-east-asian: normal; font-variant-position: normal; font-feature-settings: normal; font-optical-sizing: auto; font-variation-settings: normal;&quot;&gt;&lt;b&gt;ぼ&lt;/b&gt;&lt;/p&gt;" style="text;html=1;strokeColor=none;fillColor=none;align=center;verticalAlign=middle;whiteSpace=wrap;rounded=0;" vertex="1" parent="1">
          <mxGeometry x="330" y="130" width="30" height="30" as="geometry" />
        </mxCell>
        <mxCell id="rx5Ag137ocZ3iWV7Ir7C-89" value="&lt;p style=&quot;margin: 0px; font-style: normal; font-variant-caps: normal; font-stretch: normal; font-size: 13px; line-height: normal; font-family: &amp;quot;Hiragino Sans&amp;quot;; font-size-adjust: none; font-kerning: auto; font-variant-alternates: normal; font-variant-ligatures: normal; font-variant-numeric: normal; font-variant-east-asian: normal; font-variant-position: normal; font-feature-settings: normal; font-optical-sizing: auto; font-variation-settings: normal;&quot;&gt;&lt;b&gt;ば&lt;/b&gt;&lt;/p&gt;" style="text;html=1;strokeColor=none;fillColor=none;align=center;verticalAlign=middle;whiteSpace=wrap;rounded=0;" vertex="1" parent="1">
          <mxGeometry x="230" y="130" width="30" height="30" as="geometry" />
        </mxCell>
        <mxCell id="rx5Ag137ocZ3iWV7Ir7C-90" value="&lt;p style=&quot;margin: 0px; font-style: normal; font-variant-caps: normal; font-stretch: normal; font-size: 13px; line-height: normal; font-family: &amp;quot;Hiragino Sans&amp;quot;; font-size-adjust: none; font-kerning: auto; font-variant-alternates: normal; font-variant-ligatures: normal; font-variant-numeric: normal; font-variant-east-asian: normal; font-variant-position: normal; font-feature-settings: normal; font-optical-sizing: auto; font-variation-settings: normal;&quot;&gt;&lt;b&gt;ご&lt;/b&gt;&lt;/p&gt;" style="text;html=1;strokeColor=none;fillColor=none;align=center;verticalAlign=middle;whiteSpace=wrap;rounded=0;" vertex="1" parent="1">
          <mxGeometry x="130" y="130" width="30" height="30" as="geometry" />
        </mxCell>
        <mxCell id="rx5Ag137ocZ3iWV7Ir7C-91" value="&lt;p style=&quot;margin: 0px; font-style: normal; font-variant-caps: normal; font-stretch: normal; font-size: 13px; line-height: normal; font-family: &amp;quot;Hiragino Sans&amp;quot;; font-size-adjust: none; font-kerning: auto; font-variant-alternates: normal; font-variant-ligatures: normal; font-variant-numeric: normal; font-variant-east-asian: normal; font-variant-position: normal; font-feature-settings: normal; font-optical-sizing: auto; font-variation-settings: normal;&quot;&gt;&lt;b&gt;ぞ&lt;/b&gt;&lt;/p&gt;" style="text;html=1;strokeColor=none;fillColor=none;align=center;verticalAlign=middle;whiteSpace=wrap;rounded=0;" vertex="1" parent="1">
          <mxGeometry x="30" y="130" width="30" height="30" as="geometry" />
        </mxCell>
        <mxCell id="rx5Ag137ocZ3iWV7Ir7C-92" value="&lt;p style=&quot;margin: 0px; font-style: normal; font-variant-caps: normal; font-stretch: normal; font-size: 13px; line-height: normal; font-family: &amp;quot;Hiragino Sans&amp;quot;; font-size-adjust: none; font-kerning: auto; font-variant-alternates: normal; font-variant-ligatures: normal; font-variant-numeric: normal; font-variant-east-asian: normal; font-variant-position: normal; font-feature-settings: normal; font-optical-sizing: auto; font-variation-settings: normal;&quot;&gt;&lt;b&gt;び&lt;/b&gt;&lt;/p&gt;" style="text;html=1;strokeColor=none;fillColor=none;align=center;verticalAlign=middle;whiteSpace=wrap;rounded=0;" vertex="1" parent="1">
          <mxGeometry x="-70" y="130" width="30" height="30" as="geometry" />
        </mxCell>
        <mxCell id="rx5Ag137ocZ3iWV7Ir7C-94" value="&lt;p style=&quot;margin: 0px; font-style: normal; font-variant-caps: normal; font-stretch: normal; font-size: 13px; line-height: normal; font-family: &amp;quot;Hiragino Sans&amp;quot;; font-size-adjust: none; font-kerning: auto; font-variant-alternates: normal; font-variant-ligatures: normal; font-variant-numeric: normal; font-variant-east-asian: normal; font-variant-position: normal; font-feature-settings: normal; font-optical-sizing: auto; font-variation-settings: normal;&quot;&gt;&lt;b&gt;ざ&lt;/b&gt;&lt;/p&gt;" style="text;html=1;strokeColor=none;fillColor=none;align=center;verticalAlign=middle;whiteSpace=wrap;rounded=0;" vertex="1" parent="1">
          <mxGeometry x="230" y="330" width="30" height="30" as="geometry" />
        </mxCell>
        <mxCell id="rx5Ag137ocZ3iWV7Ir7C-95" value="&lt;p style=&quot;margin: 0px; font-style: normal; font-variant-caps: normal; font-stretch: normal; font-size: 13px; line-height: normal; font-family: &amp;quot;Hiragino Sans&amp;quot;; font-size-adjust: none; font-kerning: auto; font-variant-alternates: normal; font-variant-ligatures: normal; font-variant-numeric: normal; font-variant-east-asian: normal; font-variant-position: normal; font-feature-settings: normal; font-optical-sizing: auto; font-variation-settings: normal;&quot;&gt;&lt;b&gt;ぴ&lt;/b&gt;&lt;/p&gt;" style="text;html=1;strokeColor=none;fillColor=none;align=center;verticalAlign=middle;whiteSpace=wrap;rounded=0;" vertex="1" parent="1">
          <mxGeometry x="-90" y="120" width="30" height="30" as="geometry" />
        </mxCell>
        <mxCell id="rx5Ag137ocZ3iWV7Ir7C-96" value="&lt;p style=&quot;margin: 0px; font-style: normal; font-variant-caps: normal; font-stretch: normal; font-size: 13px; line-height: normal; font-family: &amp;quot;Hiragino Sans&amp;quot;; font-size-adjust: none; font-kerning: auto; font-variant-alternates: normal; font-variant-ligatures: normal; font-variant-numeric: normal; font-variant-east-asian: normal; font-variant-position: normal; font-feature-settings: normal; font-optical-sizing: auto; font-variation-settings: normal;&quot;&gt;&lt;b&gt;ぽ&lt;/b&gt;&lt;/p&gt;" style="text;html=1;strokeColor=none;fillColor=none;align=center;verticalAlign=middle;whiteSpace=wrap;rounded=0;" vertex="1" parent="1">
          <mxGeometry x="310" y="120" width="30" height="30" as="geometry" />
        </mxCell>
        <mxCell id="rx5Ag137ocZ3iWV7Ir7C-97" value="&lt;p style=&quot;margin: 0px; font-style: normal; font-variant-caps: normal; font-stretch: normal; font-size: 13px; line-height: normal; font-family: &amp;quot;Hiragino Sans&amp;quot;; font-size-adjust: none; font-kerning: auto; font-variant-alternates: normal; font-variant-ligatures: normal; font-variant-numeric: normal; font-variant-east-asian: normal; font-variant-position: normal; font-feature-settings: normal; font-optical-sizing: auto; font-variation-settings: normal;&quot;&gt;&lt;b&gt;ぷ&lt;/b&gt;&lt;/p&gt;" style="text;html=1;strokeColor=none;fillColor=none;align=center;verticalAlign=middle;whiteSpace=wrap;rounded=0;" vertex="1" parent="1">
          <mxGeometry x="310" y="230" width="30" height="30" as="geometry" />
        </mxCell>
        <mxCell id="rx5Ag137ocZ3iWV7Ir7C-98" value="&lt;p style=&quot;margin: 0px; font-style: normal; font-variant-caps: normal; font-stretch: normal; font-size: 13px; line-height: normal; font-family: &amp;quot;Hiragino Sans&amp;quot;; font-size-adjust: none; font-kerning: auto; font-variant-alternates: normal; font-variant-ligatures: normal; font-variant-numeric: normal; font-variant-east-asian: normal; font-variant-position: normal; font-feature-settings: normal; font-optical-sizing: auto; font-variation-settings: normal;&quot;&gt;&lt;b&gt;ぺ&lt;/b&gt;&lt;/p&gt;" style="text;html=1;strokeColor=none;fillColor=none;align=center;verticalAlign=middle;whiteSpace=wrap;rounded=0;" vertex="1" parent="1">
          <mxGeometry x="310" y="330" width="30" height="30" as="geometry" />
        </mxCell>
        <mxCell id="rx5Ag137ocZ3iWV7Ir7C-99" value="&lt;p style=&quot;margin: 0px; font-style: normal; font-variant-caps: normal; font-stretch: normal; font-size: 13px; line-height: normal; font-family: &amp;quot;Hiragino Sans&amp;quot;; font-size-adjust: none; font-kerning: auto; font-variant-alternates: normal; font-variant-ligatures: normal; font-variant-numeric: normal; font-variant-east-asian: normal; font-variant-position: normal; font-feature-settings: normal; font-optical-sizing: auto; font-variation-settings: normal;&quot;&gt;&lt;b&gt;ぱ&lt;/b&gt;&lt;/p&gt;" style="text;html=1;strokeColor=none;fillColor=none;align=center;verticalAlign=middle;whiteSpace=wrap;rounded=0;" vertex="1" parent="1">
          <mxGeometry x="210" y="120" width="30" height="30" as="geometry" />
        </mxCell>
        <mxCell id="rx5Ag137ocZ3iWV7Ir7C-100" value="&lt;font style=&quot;border-color: var(--border-color); font-family: &amp;quot;Source Code Pro&amp;quot;;&quot; color=&quot;#ff0000&quot;&gt;undo&lt;/font&gt;" style="text;html=1;strokeColor=none;fillColor=none;align=center;verticalAlign=middle;whiteSpace=wrap;rounded=0;" vertex="1" parent="1">
          <mxGeometry x="-130" y="120" width="60" height="30" as="geometry" />
        </mxCell>
        <mxCell id="rx5Ag137ocZ3iWV7Ir7C-101" value="&lt;font style=&quot;border-color: var(--border-color); font-family: &amp;quot;Source Code Pro&amp;quot;;&quot; color=&quot;#ff0080&quot;&gt;CapsLk&lt;/font&gt;" style="text;html=1;strokeColor=none;fillColor=none;align=center;verticalAlign=middle;whiteSpace=wrap;rounded=0;" vertex="1" parent="1">
          <mxGeometry x="-130" y="180" width="60" height="30" as="geometry" />
        </mxCell>
      </root>
    </mxGraphModel>
  </diagram>
</mxfile>
